  0
SECTION
  2
HEADER
  0
ENDSEC
  0
SECTION
  2
ENTITIES
  0
POLYLINE
  8
Layer1
 66
1
 70
9
  0
VERTEX
  8
Layer1
 10
-43199.4350
 20
-145679.9376
 30
52.2468
  0
VERTEX
  8
Layer1
 10
-43199.7043
 20
-145679.8626
 30
52.4877
  0
VERTEX
  8
Layer1
 10
-43200.0295
 20
-145679.8566
 30
52.4451
  0
VERTEX
  8
Layer1
 10
-43200.1500
 20
-145679.8764
 30
52.2886
  0
VERTEX
  8
Layer1
 10
-43199.8728
 20
-145679.9651
 30
52.0495
  0
VERTEX
  8
Layer1
 10
-43199.5962
 20
-145679.9657
 30
52.0891
  0
SEQEND
  8
Layer1
  0
POLYLINE
  8
Layer2
 66
1
 70
9
  0
VERTEX
  8
Layer2
 10
-43198.5345
 20
-145679.9228
 30
52.2181
  0
VERTEX
  8
Layer2
 10
-43198.8848
 20
-145679.8377
 30
52.5009
  0
VERTEX
  8
Layer2
 10
-43199.2550
 20
-145679.8666
 30
52.4076
  0
VERTEX
  8
Layer2
 10
-43199.1894
 20
-145679.9665
 30
52.1125
  0
VERTEX
  8
Layer2
 10
-43198.8193
 20
-145679.9820
 30
52.0581
  0
SEQEND
  8
Layer2
  0
POLYLINE
  8
Layer3
 66
1
 70
9
  0
VERTEX
  8
Layer3
 10
-43197.8865
 20
-145679.9090
 30
52.3178
  0
VERTEX
  8
Layer3
 10
-43198.0475
 20
-145679.8321
 30
52.4729
  0
VERTEX
  8
Layer3
 10
-43198.3199
 20
-145679.8603
 30
52.3731
  0
VERTEX
  8
Layer3
 10
-43198.3495
 20
-145679.9350
 30
52.1945
  0
VERTEX
  8
Layer3
 10
-43198.2194
 20
-145680.0004
 30
52.0444
  0
VERTEX
  8
Layer3
 10
-43197.8980
 20
-145679.9681
 30
52.1492
  0
SEQEND
  8
Layer3
  0
POLYLINE
  8
Layer4
 66
1
 70
9
  0
VERTEX
  8
Layer4
 10
-43196.9905
 20
-145679.9114
 30
52.2633
  0
VERTEX
  8
Layer4
 10
-43197.2963
 20
-145679.8487
 30
52.4770
  0
VERTEX
  8
Layer4
 10
-43197.7056
 20
-145679.8735
 30
52.3792
  0
VERTEX
  8
Layer4
 10
-43197.6033
 20
-145679.9686
 30
52.1007
  0
VERTEX
  8
Layer4
 10
-43197.2492
 20
-145679.9770
 30
52.0680
  0
SEQEND
  8
Layer4
  0
POLYLINE
  8
Layer5
 66
1
 70
9
  0
VERTEX
  8
Layer5
 10
-43196.1717
 20
-145679.8778
 30
52.3300
  0
VERTEX
  8
Layer5
 10
-43196.4841
 20
-145679.8272
 30
52.5072
  0
VERTEX
  8
Layer5
 10
-43196.7203
 20
-145679.8719
 30
52.3932
  0
VERTEX
  8
Layer5
 10
-43196.8099
 20
-145679.9772
 30
52.1296
  0
VERTEX
  8
Layer5
 10
-43196.5685
 20
-145680.0019
 30
52.0458
  0
VERTEX
  8
Layer5
 10
-43196.2540
 20
-145679.9484
 30
52.1541
  0
SEQEND
  8
Layer5
  0
POLYLINE
  8
Layer6
 66
1
 70
9
  0
VERTEX
  8
Layer6
 10
-43195.3840
 20
-145679.8945
 30
52.3163
  0
VERTEX
  8
Layer6
 10
-43195.5313
 20
-145679.8429
 30
52.4570
  0
VERTEX
  8
Layer6
 10
-43195.7748
 20
-145679.8336
 30
52.5003
  0
VERTEX
  8
Layer6
 10
-43195.9880
 20
-145679.9052
 30
52.3298
  0
VERTEX
  8
Layer6
 10
-43195.9315
 20
-145679.9546
 30
52.1559
  0
VERTEX
  8
Layer6
 10
-43195.6301
 20
-145679.9881
 30
52.0262
  0
VERTEX
  8
Layer6
 10
-43195.4407
 20
-145679.9459
 30
52.1493
  0
SEQEND
  8
Layer6
  0
POLYLINE
  8
Layer7
 66
1
 70
9
  0
VERTEX
  8
Layer7
 10
-43194.5609
 20
-145679.9061
 30
52.2934
  0
VERTEX
  8
Layer7
 10
-43194.6418
 20
-145679.8610
 30
52.4289
  0
VERTEX
  8
Layer7
 10
-43194.9602
 20
-145679.8400
 30
52.4850
  0
VERTEX
  8
Layer7
 10
-43195.1619
 20
-145679.8730
 30
52.3722
  0
VERTEX
  8
Layer7
 10
-43195.1748
 20
-145679.9428
 30
52.1578
  0
VERTEX
  8
Layer7
 10
-43194.9192
 20
-145679.9836
 30
52.0267
  0
VERTEX
  8
Layer7
 10
-43194.6042
 20
-145679.9811
 30
52.0785
  0
SEQEND
  8
Layer7
  0
POLYLINE
  8
Layer8
 66
1
 70
9
  0
VERTEX
  8
Layer8
 10
-43193.7256
 20
-145679.8685
 30
52.3610
  0
VERTEX
  8
Layer8
 10
-43194.0048
 20
-145679.8430
 30
52.4988
  0
VERTEX
  8
Layer8
 10
-43194.3224
 20
-145679.9033
 30
52.3648
  0
VERTEX
  8
Layer8
 10
-43194.2472
 20
-145679.9721
 30
52.1332
  0
VERTEX
  8
Layer8
 10
-43193.8742
 20
-145679.9707
 30
52.0681
  0
SEQEND
  8
Layer8
  0
POLYLINE
  8
Layer9
 66
1
 70
9
  0
VERTEX
  8
Layer9
 10
-43192.7371
 20
-145679.8849
 30
52.3215
  0
VERTEX
  8
Layer9
 10
-43192.9884
 20
-145679.8410
 30
52.4887
  0
VERTEX
  8
Layer9
 10
-43193.3193
 20
-145679.8648
 30
52.4539
  0
VERTEX
  8
Layer9
 10
-43193.4774
 20
-145679.9045
 30
52.3221
  0
VERTEX
  8
Layer9
 10
-43193.4587
 20
-145679.9639
 30
52.1100
  0
VERTEX
  8
Layer9
 10
-43193.0893
 20
-145679.9726
 30
52.0570
  0
VERTEX
  8
Layer9
 10
-43192.8573
 20
-145679.9429
 30
52.1411
  0
SEQEND
  8
Layer9
  0
POLYLINE
  8
Layer10
 66
1
 70
9
  0
VERTEX
  8
Layer10
 10
-43199.7252
 20
-145679.7381
 30
52.8949
  0
VERTEX
  8
Layer10
 10
-43199.8484
 20
-145679.6928
 30
53.0355
  0
VERTEX
  8
Layer10
 10
-43200.1214
 20
-145679.6577
 30
53.0316
  0
VERTEX
  8
Layer10
 10
-43200.3174
 20
-145679.6648
 30
52.9365
  0
VERTEX
  8
Layer10
 10
-43200.2910
 20
-145679.7412
 30
52.7190
  0
VERTEX
  8
Layer10
 10
-43200.0507
 20
-145679.7807
 30
52.6267
  0
VERTEX
  8
Layer10
 10
-43199.8301
 20
-145679.7871
 30
52.6819
  0
SEQEND
  8
Layer10
  0
POLYLINE
  8
Layer11
 66
1
 70
9
  0
VERTEX
  8
Layer11
 10
-43198.7539
 20
-145679.6919
 30
52.9653
  0
VERTEX
  8
Layer11
 10
-43198.9162
 20
-145679.6547
 30
53.0442
  0
VERTEX
  8
Layer11
 10
-43199.3307
 20
-145679.6505
 30
53.0103
  0
VERTEX
  8
Layer11
 10
-43199.5332
 20
-145679.7151
 30
52.8295
  0
VERTEX
  8
Layer11
 10
-43199.3777
 20
-145679.7774
 30
52.6778
  0
VERTEX
  8
Layer11
 10
-43199.1031
 20
-145679.8038
 30
52.6497
  0
VERTEX
  8
Layer11
 10
-43198.8507
 20
-145679.7701
 30
52.7466
  0
SEQEND
  8
Layer11
  0
POLYLINE
  8
Layer12
 66
1
 70
9
  0
VERTEX
  8
Layer12
 10
-43197.9319
 20
-145679.7356
 30
52.8996
  0
VERTEX
  8
Layer12
 10
-43198.0434
 20
-145679.6910
 30
52.9871
  0
VERTEX
  8
Layer12
 10
-43198.3221
 20
-145679.6475
 30
53.0514
  0
VERTEX
  8
Layer12
 10
-43198.5624
 20
-145679.6676
 30
52.9388
  0
VERTEX
  8
Layer12
 10
-43198.5641
 20
-145679.7248
 30
52.7507
  0
VERTEX
  8
Layer12
 10
-43198.3399
 20
-145679.7928
 30
52.6304
  0
VERTEX
  8
Layer12
 10
-43198.0295
 20
-145679.7940
 30
52.6817
  0
SEQEND
  8
Layer12
  0
POLYLINE
  8
Layer13
 66
1
 70
9
  0
VERTEX
  8
Layer13
 10
-43197.0789
 20
-145679.7010
 30
52.9070
  0
VERTEX
  8
Layer13
 10
-43197.2053
 20
-145679.6730
 30
53.0422
  0
VERTEX
  8
Layer13
 10
-43197.6034
 20
-145679.6767
 30
53.0365
  0
VERTEX
  8
Layer13
 10
-43197.7611
 20
-145679.7357
 30
52.8481
  0
VERTEX
  8
Layer13
 10
-43197.5409
 20
-145679.7856
 30
52.6432
  0
VERTEX
  8
Layer13
 10
-43197.1415
 20
-145679.7677
 30
52.6549
  0
SEQEND
  8
Layer13
  0
POLYLINE
  8
Layer14
 66
1
 70
9
  0
VERTEX
  8
Layer14
 10
-43196.2818
 20
-145679.6882
 30
52.8840
  0
VERTEX
  8
Layer14
 10
-43196.5131
 20
-145679.6543
 30
53.0466
  0
VERTEX
  8
Layer14
 10
-43196.8292
 20
-145679.7118
 30
52.9253
  0
VERTEX
  8
Layer14
 10
-43196.7317
 20
-145679.7912
 30
52.6600
  0
VERTEX
  8
Layer14
 10
-43196.3887
 20
-145679.7660
 30
52.6870
  0
SEQEND
  8
Layer14
  0
POLYLINE
  8
Layer15
 66
1
 70
9
  0
VERTEX
  8
Layer15
 10
-43195.4354
 20
-145679.7050
 30
52.9282
  0
VERTEX
  8
Layer15
 10
-43195.6018
 20
-145679.6573
 30
53.0443
  0
VERTEX
  8
Layer15
 10
-43195.8698
 20
-145679.6422
 30
53.0355
  0
VERTEX
  8
Layer15
 10
-43196.0834
 20
-145679.6924
 30
52.9013
  0
VERTEX
  8
Layer15
 10
-43196.0975
 20
-145679.7550
 30
52.7368
  0
VERTEX
  8
Layer15
 10
-43195.7793
 20
-145679.8053
 30
52.6387
  0
VERTEX
  8
Layer15
 10
-43195.5086
 20
-145679.7887
 30
52.7116
  0
SEQEND
  8
Layer15
  0
POLYLINE
  8
Layer16
 66
1
 70
9
  0
VERTEX
  8
Layer16
 10
-43194.7667
 20
-145679.7037
 30
52.8906
  0
VERTEX
  8
Layer16
 10
-43194.9750
 20
-145679.6477
 30
53.0664
  0
VERTEX
  8
Layer16
 10
-43195.2603
 20
-145679.7032
 30
52.9252
  0
VERTEX
  8
Layer16
 10
-43195.1940
 20
-145679.7798
 30
52.6752
  0
VERTEX
  8
Layer16
 10
-43194.8950
 20
-145679.7897
 30
52.6522
  0
SEQEND
  8
Layer16
  0
POLYLINE
  8
Layer17
 66
1
 70
9
  0
VERTEX
  8
Layer17
 10
-43193.8322
 20
-145679.6950
 30
52.9021
  0
VERTEX
  8
Layer17
 10
-43193.9527
 20
-145679.6690
 30
53.0158
  0
VERTEX
  8
Layer17
 10
-43194.3327
 20
-145679.6599
 30
53.0697
  0
VERTEX
  8
Layer17
 10
-43194.5600
 20
-145679.7176
 30
52.9068
  0
VERTEX
  8
Layer17
 10
-43194.5179
 20
-145679.7627
 30
52.7717
  0
VERTEX
  8
Layer17
 10
-43194.1860
 20
-145679.7807
 30
52.6413
  0
VERTEX
  8
Layer17
 10
-43193.9057
 20
-145679.7617
 30
52.6795
  0
SEQEND
  8
Layer17
  0
POLYLINE
  8
Layer18
 66
1
 70
9
  0
VERTEX
  8
Layer18
 10
-43193.1931
 20
-145679.7282
 30
52.8316
  0
VERTEX
  8
Layer18
 10
-43193.2535
 20
-145679.6706
 30
53.0087
  0
VERTEX
  8
Layer18
 10
-43193.5073
 20
-145679.6564
 30
53.0308
  0
VERTEX
  8
Layer18
 10
-43193.6341
 20
-145679.6762
 30
52.9563
  0
VERTEX
  8
Layer18
 10
-43193.6394
 20
-145679.7530
 30
52.7656
  0
VERTEX
  8
Layer18
 10
-43193.4964
 20
-145679.7862
 30
52.6667
  0
VERTEX
  8
Layer18
 10
-43193.2711
 20
-145679.7835
 30
52.6834
  0
SEQEND
  8
Layer18
  0
POLYLINE
  8
Layer19
 66
1
 70
9
  0
VERTEX
  8
Layer19
 10
-43192.7332
 20
-145679.7158
 30
52.8872
  0
VERTEX
  8
Layer19
 10
-43192.9085
 20
-145679.6554
 30
53.0485
  0
VERTEX
  8
Layer19
 10
-43192.9952
 20
-145679.6700
 30
52.9946
  0
VERTEX
  8
Layer19
 10
-43193.0569
 20
-145679.7329
 30
52.8084
  0
VERTEX
  8
Layer19
 10
-43192.9022
 20
-145679.7972
 30
52.6416
  0
VERTEX
  8
Layer19
 10
-43192.7904
 20
-145679.7782
 30
52.6822
  0
SEQEND
  8
Layer19
  0
POLYLINE
  8
Layer20
 66
1
 70
9
  0
VERTEX
  8
Layer20
 10
-43199.7860
 20
-145679.5241
 30
53.4447
  0
VERTEX
  8
Layer20
 10
-43199.9588
 20
-145679.4869
 30
53.5893
  0
VERTEX
  8
Layer20
 10
-43200.1407
 20
-145679.5298
 30
53.4793
  0
VERTEX
  8
Layer20
 10
-43200.0940
 20
-145679.5945
 30
53.2316
  0
VERTEX
  8
Layer20
 10
-43199.8642
 20
-145679.5938
 30
53.2257
  0
SEQEND
  8
Layer20
  0
POLYLINE
  8
Layer21
 66
1
 70
9
  0
VERTEX
  8
Layer21
 10
-43199.0074
 20
-145679.5090
 30
53.4672
  0
VERTEX
  8
Layer21
 10
-43199.3231
 20
-145679.4829
 30
53.5760
  0
VERTEX
  8
Layer21
 10
-43199.6155
 20
-145679.5478
 30
53.3982
  0
VERTEX
  8
Layer21
 10
-43199.4527
 20
-145679.6159
 30
53.2131
  0
VERTEX
  8
Layer21
 10
-43199.1213
 20
-145679.5941
 30
53.2582
  0
SEQEND
  8
Layer21
  0
POLYLINE
  8
Layer22
 66
1
 70
9
  0
VERTEX
  8
Layer22
 10
-43198.4191
 20
-145679.5283
 30
53.4407
  0
VERTEX
  8
Layer22
 10
-43198.5822
 20
-145679.4983
 30
53.5732
  0
VERTEX
  8
Layer22
 10
-43198.8082
 20
-145679.5183
 30
53.4945
  0
VERTEX
  8
Layer22
 10
-43198.8430
 20
-145679.5607
 30
53.3420
  0
VERTEX
  8
Layer22
 10
-43198.6341
 20
-145679.6004
 30
53.2025
  0
VERTEX
  8
Layer22
 10
-43198.4423
 20
-145679.5802
 30
53.2850
  0
SEQEND
  8
Layer22
  0
POLYLINE
  8
Layer23
 66
1
 70
9
  0
VERTEX
  8
Layer23
 10
-43197.6402
 20
-145679.5472
 30
53.4211
  0
VERTEX
  8
Layer23
 10
-43197.9360
 20
-145679.4913
 30
53.5574
  0
VERTEX
  8
Layer23
 10
-43198.2163
 20
-145679.5054
 30
53.4992
  0
VERTEX
  8
Layer23
 10
-43198.2054
 20
-145679.5926
 30
53.2578
  0
VERTEX
  8
Layer23
 10
-43197.7867
 20
-145679.6040
 30
53.2378
  0
SEQEND
  8
Layer23
  0
POLYLINE
  8
Layer24
 66
1
 70
9
  0
VERTEX
  8
Layer24
 10
-43196.8612
 20
-145679.5533
 30
53.3891
  0
VERTEX
  8
Layer24
 10
-43197.0622
 20
-145679.5050
 30
53.5861
  0
VERTEX
  8
Layer24
 10
-43197.3469
 20
-145679.5038
 30
53.5497
  0
VERTEX
  8
Layer24
 10
-43197.5241
 20
-145679.5376
 30
53.4068
  0
VERTEX
  8
Layer24
 10
-43197.4093
 20
-145679.5726
 30
53.2750
  0
VERTEX
  8
Layer24
 10
-43197.2184
 20
-145679.6056
 30
53.1791
  0
VERTEX
  8
Layer24
 10
-43196.8929
 20
-145679.5905
 30
53.2689
  0
SEQEND
  8
Layer24
  0
POLYLINE
  8
Layer25
 66
1
 70
9
  0
VERTEX
  8
Layer25
 10
-43196.0846
 20
-145679.5202
 30
53.4623
  0
VERTEX
  8
Layer25
 10
-43196.3594
 20
-145679.4723
 30
53.5846
  0
VERTEX
  8
Layer25
 10
-43196.6435
 20
-145679.5129
 30
53.4754
  0
VERTEX
  8
Layer25
 10
-43196.6723
 20
-145679.5844
 30
53.3087
  0
VERTEX
  8
Layer25
 10
-43196.4140
 20
-145679.6262
 30
53.2050
  0
VERTEX
  8
Layer25
 10
-43196.1376
 20
-145679.5811
 30
53.3094
  0
SEQEND
  8
Layer25
  0
POLYLINE
  8
Layer26
 66
1
 70
9
  0
VERTEX
  8
Layer26
 10
-43195.3271
 20
-145679.5444
 30
53.4113
  0
VERTEX
  8
Layer26
 10
-43195.5831
 20
-145679.4733
 30
53.5677
  0
VERTEX
  8
Layer26
 10
-43195.8855
 20
-145679.5167
 30
53.4570
  0
VERTEX
  8
Layer26
 10
-43195.8302
 20
-145679.6058
 30
53.2425
  0
VERTEX
  8
Layer26
 10
-43195.4334
 20
-145679.6150
 30
53.2361
  0
SEQEND
  8
Layer26
  0
POLYLINE
  8
Layer27
 66
1
 70
9
  0
VERTEX
  8
Layer27
 10
-43194.5779
 20
-145679.5617
 30
53.4172
  0
VERTEX
  8
Layer27
 10
-43194.7739
 20
-145679.5123
 30
53.5628
  0
VERTEX
  8
Layer27
 10
-43195.0018
 20
-145679.5071
 30
53.5417
  0
VERTEX
  8
Layer27
 10
-43195.1299
 20
-145679.5441
 30
53.3579
  0
VERTEX
  8
Layer27
 10
-43194.9004
 20
-145679.5973
 30
53.1928
  0
VERTEX
  8
Layer27
 10
-43194.6144
 20
-145679.6002
 30
53.2334
  0
SEQEND
  8
Layer27
  0
POLYLINE
  8
Layer28
 66
1
 70
9
  0
VERTEX
  8
Layer28
 10
-43193.7255
 20
-145679.5485
 30
53.4268
  0
VERTEX
  8
Layer28
 10
-43193.8634
 20
-145679.5096
 30
53.5466
  0
VERTEX
  8
Layer28
 10
-43194.1705
 20
-145679.4981
 30
53.5479
  0
VERTEX
  8
Layer28
 10
-43194.3646
 20
-145679.5300
 30
53.4142
  0
VERTEX
  8
Layer28
 10
-43194.2633
 20
-145679.5806
 30
53.2505
  0
VERTEX
  8
Layer28
 10
-43194.0396
 20
-145679.6095
 30
53.1988
  0
VERTEX
  8
Layer28
 10
-43193.7595
 20
-145679.5980
 30
53.2503
  0
SEQEND
  8
Layer28
  0
POLYLINE
  8
Layer29
 66
1
 70
9
  0
VERTEX
  8
Layer29
 10
-43192.7891
 20
-145679.5226
 30
53.4345
  0
VERTEX
  8
Layer29
 10
-43193.1679
 20
-145679.4830
 30
53.5729
  0
VERTEX
  8
Layer29
 10
-43193.5062
 20
-145679.5342
 30
53.4662
  0
VERTEX
  8
Layer29
 10
-43193.3543
 20
-145679.6063
 30
53.2185
  0
VERTEX
  8
Layer29
 10
-43192.9676
 20
-145679.6009
 30
53.2249
  0
SEQEND
  8
Layer29
  0
POLYLINE
  8
Layer30
 66
1
 70
9
  0
VERTEX
  8
Layer30
 10
-43199.8164
 20
-145679.3835
 30
53.8873
  0
VERTEX
  8
Layer30
 10
-43199.8590
 20
-145679.3512
 30
53.9926
  0
VERTEX
  8
Layer30
 10
-43200.0364
 20
-145679.3362
 30
54.0303
  0
VERTEX
  8
Layer30
 10
-43200.1695
 20
-145679.3814
 30
53.9062
  0
VERTEX
  8
Layer30
 10
-43200.1448
 20
-145679.4129
 30
53.7868
  0
VERTEX
  8
Layer30
 10
-43200.0152
 20
-145679.4373
 30
53.7129
  0
VERTEX
  8
Layer30
 10
-43199.8648
 20
-145679.4420
 30
53.7341
  0
SEQEND
  8
Layer30
  0
POLYLINE
  8
Layer31
 66
1
 70
9
  0
VERTEX
  8
Layer31
 10
-43198.9870
 20
-145679.3820
 30
53.8297
  0
VERTEX
  8
Layer31
 10
-43199.1978
 20
-145679.3507
 30
54.0007
  0
VERTEX
  8
Layer31
 10
-43199.3989
 20
-145679.3600
 30
54.0371
  0
VERTEX
  8
Layer31
 10
-43199.6110
 20
-145679.3986
 30
53.9353
  0
VERTEX
  8
Layer31
 10
-43199.5431
 20
-145679.4317
 30
53.7762
  0
VERTEX
  8
Layer31
 10
-43199.3142
 20
-145679.4340
 30
53.6870
  0
VERTEX
  8
Layer31
 10
-43199.0576
 20
-145679.4112
 30
53.7419
  0
SEQEND
  8
Layer31
  0
POLYLINE
  8
Layer32
 66
1
 70
9
  0
VERTEX
  8
Layer32
 10
-43198.1845
 20
-145679.3965
 30
53.8379
  0
VERTEX
  8
Layer32
 10
-43198.4472
 20
-145679.3488
 30
54.0114
  0
VERTEX
  8
Layer32
 10
-43198.8488
 20
-145679.3627
 30
53.9409
  0
VERTEX
  8
Layer32
 10
-43198.7711
 20
-145679.4281
 30
53.7738
  0
VERTEX
  8
Layer32
 10
-43198.4144
 20
-145679.4484
 30
53.7117
  0
SEQEND
  8
Layer32
  0
POLYLINE
  8
Layer33
 66
1
 70
9
  0
VERTEX
  8
Layer33
 10
-43197.6855
 20
-145679.3764
 30
53.9158
  0
VERTEX
  8
Layer33
 10
-43197.7837
 20
-145679.3415
 30
54.0130
  0
VERTEX
  8
Layer33
 10
-43197.9977
 20
-145679.3601
 30
53.9581
  0
VERTEX
  8
Layer33
 10
-43198.0625
 20
-145679.4015
 30
53.8481
  0
VERTEX
  8
Layer33
 10
-43197.8747
 20
-145679.4488
 30
53.7114
  0
VERTEX
  8
Layer33
 10
-43197.7103
 20
-145679.4213
 30
53.7807
  0
SEQEND
  8
Layer33
  0
POLYLINE
  8
Layer34
 66
1
 70
9
  0
VERTEX
  8
Layer34
 10
-43197.1399
 20
-145679.3846
 30
53.9265
  0
VERTEX
  8
Layer34
 10
-43197.3768
 20
-145679.3273
 30
54.0038
  0
VERTEX
  8
Layer34
 10
-43197.5087
 20
-145679.3773
 30
53.8875
  0
VERTEX
  8
Layer34
 10
-43197.4526
 20
-145679.4315
 30
53.7479
  0
VERTEX
  8
Layer34
 10
-43197.2232
 20
-145679.4592
 30
53.7263
  0
SEQEND
  8
Layer34
  0
POLYLINE
  8
Layer35
 66
1
 70
9
  0
VERTEX
  8
Layer35
 10
-43196.3959
 20
-145679.4177
 30
53.8235
  0
VERTEX
  8
Layer35
 10
-43196.6896
 20
-145679.3585
 30
54.0151
  0
VERTEX
  8
Layer35
 10
-43196.9468
 20
-145679.3556
 30
53.9517
  0
VERTEX
  8
Layer35
 10
-43196.9105
 20
-145679.4052
 30
53.7943
  0
VERTEX
  8
Layer35
 10
-43196.6060
 20
-145679.4461
 30
53.6895
  0
SEQEND
  8
Layer35
  0
POLYLINE
  8
Layer36
 66
1
 70
9
  0
VERTEX
  8
Layer36
 10
-43195.8589
 20
-145679.3591
 30
53.9050
  0
VERTEX
  8
Layer36
 10
-43196.0119
 20
-145679.3337
 30
54.0330
  0
VERTEX
  8
Layer36
 10
-43196.1903
 20
-145679.3695
 30
53.9861
  0
VERTEX
  8
Layer36
 10
-43196.2515
 20
-145679.4197
 30
53.8368
  0
VERTEX
  8
Layer36
 10
-43196.1335
 20
-145679.4496
 30
53.7243
  0
VERTEX
  8
Layer36
 10
-43195.9125
 20
-145679.4209
 30
53.7245
  0
SEQEND
  8
Layer36
  0
POLYLINE
  8
Layer37
 66
1
 70
9
  0
VERTEX
  8
Layer37
 10
-43195.1473
 20
-145679.3878
 30
53.8264
  0
VERTEX
  8
Layer37
 10
-43195.2563
 20
-145679.3542
 30
53.9816
  0
VERTEX
  8
Layer37
 10
-43195.5136
 20
-145679.3526
 30
54.0172
  0
VERTEX
  8
Layer37
 10
-43195.6342
 20
-145679.3872
 30
53.9505
  0
VERTEX
  8
Layer37
 10
-43195.6359
 20
-145679.4214
 30
53.8058
  0
VERTEX
  8
Layer37
 10
-43195.4529
 20
-145679.4384
 30
53.6899
  0
VERTEX
  8
Layer37
 10
-43195.2111
 20
-145679.4115
 30
53.7580
  0
SEQEND
  8
Layer37
  0
POLYLINE
  8
Layer38
 66
1
 70
9
  0
VERTEX
  8
Layer38
 10
-43194.3152
 20
-145679.3856
 30
53.9071
  0
VERTEX
  8
Layer38
 10
-43194.5564
 20
-145679.3562
 30
54.0044
  0
VERTEX
  8
Layer38
 10
-43194.9036
 20
-145679.3552
 30
53.9787
  0
VERTEX
  8
Layer38
 10
-43194.9834
 20
-145679.3943
 30
53.8597
  0
VERTEX
  8
Layer38
 10
-43194.7766
 20
-145679.4424
 30
53.7140
  0
VERTEX
  8
Layer38
 10
-43194.4691
 20
-145679.4415
 30
53.7095
  0
SEQEND
  8
Layer38
  0
POLYLINE
  8
Layer39
 66
1
 70
9
  0
VERTEX
  8
Layer39
 10
-43193.8115
 20
-145679.3944
 30
53.9196
  0
VERTEX
  8
Layer39
 10
-43193.9542
 20
-145679.3534
 30
54.0275
  0
VERTEX
  8
Layer39
 10
-43194.1143
 20
-145679.3590
 30
53.9664
  0
VERTEX
  8
Layer39
 10
-43194.1540
 20
-145679.3975
 30
53.7968
  0
VERTEX
  8
Layer39
 10
-43194.0038
 20
-145679.4323
 30
53.7027
  0
VERTEX
  8
Layer39
 10
-43193.8777
 20
-145679.4284
 30
53.7527
  0
SEQEND
  8
Layer39
  0
POLYLINE
  8
Layer40
 66
1
 70
9
  0
VERTEX
  8
Layer40
 10
-43193.2403
 20
-145679.3896
 30
53.8934
  0
VERTEX
  8
Layer40
 10
-43193.3715
 20
-145679.3511
 30
54.0068
  0
VERTEX
  8
Layer40
 10
-43193.6100
 20
-145679.3672
 30
53.9477
  0
VERTEX
  8
Layer40
 10
-43193.6543
 20
-145679.4016
 30
53.8294
  0
VERTEX
  8
Layer40
 10
-43193.5121
 20
-145679.4429
 30
53.6921
  0
VERTEX
  8
Layer40
 10
-43193.3386
 20
-145679.4368
 30
53.7273
  0
SEQEND
  8
Layer40
  0
POLYLINE
  8
Layer41
 66
1
 70
9
  0
VERTEX
  8
Layer41
 10
-43192.7543
 20
-145679.4128
 30
53.8489
  0
VERTEX
  8
Layer41
 10
-43192.8193
 20
-145679.3709
 30
53.9868
  0
VERTEX
  8
Layer41
 10
-43192.9596
 20
-145679.3434
 30
54.0167
  0
VERTEX
  8
Layer41
 10
-43193.0869
 20
-145679.3640
 30
53.9178
  0
VERTEX
  8
Layer41
 10
-43193.0673
 20
-145679.4087
 30
53.7629
  0
VERTEX
  8
Layer41
 10
-43192.9502
 20
-145679.4430
 30
53.7067
  0
VERTEX
  8
Layer41
 10
-43192.8285
 20
-145679.4549
 30
53.7194
  0
SEQEND
  8
Layer41
  0
POLYLINE
  8
Layer42
 66
1
 70
9
  0
VERTEX
  8
Layer42
 10
-43199.9866
 20
-145679.2384
 30
54.3548
  0
VERTEX
  8
Layer42
 10
-43200.1904
 20
-145679.1862
 30
54.4912
  0
VERTEX
  8
Layer42
 10
-43200.4462
 20
-145679.2228
 30
54.3633
  0
VERTEX
  8
Layer42
 10
-43200.3759
 20
-145679.2867
 30
54.1835
  0
VERTEX
  8
Layer42
 10
-43200.0625
 20
-145679.2930
 30
54.2015
  0
SEQEND
  8
Layer42
  0
POLYLINE
  8
Layer43
 66
1
 70
9
  0
VERTEX
  8
Layer43
 10
-43199.3358
 20
-145679.2363
 30
54.3492
  0
VERTEX
  8
Layer43
 10
-43199.4627
 20
-145679.1842
 30
54.4664
  0
VERTEX
  8
Layer43
 10
-43199.7261
 20
-145679.2002
 30
54.4396
  0
VERTEX
  8
Layer43
 10
-43199.8404
 20
-145679.2542
 30
54.3187
  0
VERTEX
  8
Layer43
 10
-43199.7753
 20
-145679.2960
 30
54.1907
  0
VERTEX
  8
Layer43
 10
-43199.5345
 20
-145679.3161
 30
54.1440
  0
VERTEX
  8
Layer43
 10
-43199.3971
 20
-145679.2860
 30
54.2243
  0
SEQEND
  8
Layer43
  0
POLYLINE
  8
Layer44
 66
1
 70
9
  0
VERTEX
  8
Layer44
 10
-43198.7829
 20
-145679.2384
 30
54.3346
  0
VERTEX
  8
Layer44
 10
-43198.9386
 20
-145679.1930
 30
54.4737
  0
VERTEX
  8
Layer44
 10
-43199.1351
 20
-145679.2134
 30
54.4243
  0
VERTEX
  8
Layer44
 10
-43199.1443
 20
-145679.2940
 30
54.1945
  0
VERTEX
  8
Layer44
 10
-43198.9386
 20
-145679.2926
 30
54.1651
  0
SEQEND
  8
Layer44
  0
POLYLINE
  8
Layer45
 66
1
 70
9
  0
VERTEX
  8
Layer45
 10
-43198.0612
 20
-145679.2375
 30
54.3441
  0
VERTEX
  8
Layer45
 10
-43198.2408
 20
-145679.1988
 30
54.4728
  0
VERTEX
  8
Layer45
 10
-43198.5493
 20
-145679.2058
 30
54.4639
  0
VERTEX
  8
Layer45
 10
-43198.6128
 20
-145679.2454
 30
54.3416
  0
VERTEX
  8
Layer45
 10
-43198.5045
 20
-145679.2866
 30
54.1765
  0
VERTEX
  8
Layer45
 10
-43198.1267
 20
-145679.2888
 30
54.1874
  0
SEQEND
  8
Layer45
  0
POLYLINE
  8
Layer46
 66
1
 70
9
  0
VERTEX
  8
Layer46
 10
-43197.3892
 20
-145679.2001
 30
54.4014
  0
VERTEX
  8
Layer46
 10
-43197.5547
 20
-145679.1780
 30
54.4929
  0
VERTEX
  8
Layer46
 10
-43197.8600
 20
-145679.2236
 30
54.4005
  0
VERTEX
  8
Layer46
 10
-43197.8966
 20
-145679.2853
 30
54.2563
  0
VERTEX
  8
Layer46
 10
-43197.6741
 20
-145679.3072
 30
54.1646
  0
VERTEX
  8
Layer46
 10
-43197.4717
 20
-145679.2909
 30
54.2027
  0
SEQEND
  8
Layer46
  0
POLYLINE
  8
Layer47
 66
1
 70
9
  0
VERTEX
  8
Layer47
 10
-43196.6947
 20
-145679.2299
 30
54.3735
  0
VERTEX
  8
Layer47
 10
-43196.8696
 20
-145679.1932
 30
54.4683
  0
VERTEX
  8
Layer47
 10
-43197.0675
 20
-145679.1960
 30
54.4863
  0
VERTEX
  8
Layer47
 10
-43197.1927
 20
-145679.2275
 30
54.3855
  0
VERTEX
  8
Layer47
 10
-43197.1810
 20
-145679.2722
 30
54.2374
  0
VERTEX
  8
Layer47
 10
-43196.9400
 20
-145679.2993
 30
54.1560
  0
VERTEX
  8
Layer47
 10
-43196.7630
 20
-145679.2800
 30
54.2155
  0
SEQEND
  8
Layer47
  0
POLYLINE
  8
Layer48
 66
1
 70
9
  0
VERTEX
  8
Layer48
 10
-43195.9187
 20
-145679.2164
 30
54.3833
  0
VERTEX
  8
Layer48
 10
-43196.1139
 20
-145679.1791
 30
54.5048
  0
VERTEX
  8
Layer48
 10
-43196.4071
 20
-145679.2119
 30
54.4238
  0
VERTEX
  8
Layer48
 10
-43196.5715
 20
-145679.2690
 30
54.2880
  0
VERTEX
  8
Layer48
 10
-43196.4491
 20
-145679.3095
 30
54.1663
  0
VERTEX
  8
Layer48
 10
-43196.1743
 20
-145679.3045
 30
54.1627
  0
VERTEX
  8
Layer48
 10
-43195.9403
 20
-145679.2510
 30
54.2785
  0
SEQEND
  8
Layer48
  0
POLYLINE
  8
Layer49
 66
1
 70
9
  0
VERTEX
  8
Layer49
 10
-43195.4265
 20
-145679.2419
 30
54.3572
  0
VERTEX
  8
Layer49
 10
-43195.5488
 20
-145679.1955
 30
54.4876
  0
VERTEX
  8
Layer49
 10
-43195.7318
 20
-145679.2243
 30
54.4048
  0
VERTEX
  8
Layer49
 10
-43195.7373
 20
-145679.2622
 30
54.2582
  0
VERTEX
  8
Layer49
 10
-43195.6257
 20
-145679.2975
 30
54.1550
  0
VERTEX
  8
Layer49
 10
-43195.4804
 20
-145679.2770
 30
54.2095
  0
SEQEND
  8
Layer49
  0
POLYLINE
  8
Layer50
 66
1
 70
9
  0
VERTEX
  8
Layer50
 10
-43194.6041
 20
-145679.2485
 30
54.2972
  0
VERTEX
  8
Layer50
 10
-43194.7905
 20
-145679.2017
 30
54.4639
  0
VERTEX
  8
Layer50
 10
-43195.1300
 20
-145679.2047
 30
54.4803
  0
VERTEX
  8
Layer50
 10
-43195.2927
 20
-145679.2351
 30
54.3791
  0
VERTEX
  8
Layer50
 10
-43195.0266
 20
-145679.2971
 30
54.1543
  0
VERTEX
  8
Layer50
 10
-43194.7550
 20
-145679.2894
 30
54.1774
  0
SEQEND
  8
Layer50
  0
POLYLINE
  8
Layer51
 66
1
 70
9
  0
VERTEX
  8
Layer51
 10
-43193.9617
 20
-145679.2294
 30
54.3787
  0
VERTEX
  8
Layer51
 10
-43194.1022
 20
-145679.2016
 30
54.4957
  0
VERTEX
  8
Layer51
 10
-43194.3583
 20
-145679.2050
 30
54.4636
  0
VERTEX
  8
Layer51
 10
-43194.4411
 20
-145679.2551
 30
54.2686
  0
VERTEX
  8
Layer51
 10
-43194.2789
 20
-145679.2937
 30
54.1633
  0
VERTEX
  8
Layer51
 10
-43194.0028
 20
-145679.2735
 30
54.2177
  0
SEQEND
  8
Layer51
  0
POLYLINE
  8
Layer52
 66
1
 70
9
  0
VERTEX
  8
Layer52
 10
-43193.3807
 20
-145679.2438
 30
54.3781
  0
VERTEX
  8
Layer52
 10
-43193.5701
 20
-145679.1836
 30
54.4776
  0
VERTEX
  8
Layer52
 10
-43193.7638
 20
-145679.1952
 30
54.4161
  0
VERTEX
  8
Layer52
 10
-43193.7436
 20
-145679.2730
 30
54.2166
  0
VERTEX
  8
Layer52
 10
-43193.4525
 20
-145679.3059
 30
54.1926
  0
SEQEND
  8
Layer52
  0
POLYLINE
  8
Layer53
 66
1
 70
9
  0
VERTEX
  8
Layer53
 10
-43192.7780
 20
-145679.2295
 30
54.3567
  0
VERTEX
  8
Layer53
 10
-43192.9282
 20
-145679.1800
 30
54.4847
  0
VERTEX
  8
Layer53
 10
-43193.0723
 20
-145679.1837
 30
54.4799
  0
VERTEX
  8
Layer53
 10
-43193.2445
 20
-145679.2513
 30
54.3083
  0
VERTEX
  8
Layer53
 10
-43193.1777
 20
-145679.2869
 30
54.2163
  0
VERTEX
  8
Layer53
 10
-43193.0171
 20
-145679.3060
 30
54.1694
  0
VERTEX
  8
Layer53
 10
-43192.8202
 20
-145679.2918
 30
54.2105
  0
SEQEND
  8
Layer53
  0
POLYLINE
  8
Layer54
 66
1
 70
9
  0
VERTEX
  8
Layer54
 10
-43200.0059
 20
-145679.0990
 30
54.7680
  0
VERTEX
  8
Layer54
 10
-43200.0859
 20
-145679.0689
 30
54.8529
  0
VERTEX
  8
Layer54
 10
-43200.2772
 20
-145679.0761
 30
54.8516
  0
VERTEX
  8
Layer54
 10
-43200.3399
 20
-145679.1057
 30
54.7792
  0
VERTEX
  8
Layer54
 10
-43200.3010
 20
-145679.1402
 30
54.6498
  0
VERTEX
  8
Layer54
 10
-43200.1575
 20
-145679.1517
 30
54.6181
  0
VERTEX
  8
Layer54
 10
-43200.0549
 20
-145679.1372
 30
54.6429
  0
SEQEND
  8
Layer54
  0
POLYLINE
  8
Layer55
 66
1
 70
9
  0
VERTEX
  8
Layer55
 10
-43199.3699
 20
-145679.0927
 30
54.7909
  0
VERTEX
  8
Layer55
 10
-43199.5627
 20
-145679.0696
 30
54.8599
  0
VERTEX
  8
Layer55
 10
-43199.8145
 20
-145679.0809
 30
54.8150
  0
VERTEX
  8
Layer55
 10
-43199.8497
 20
-145679.1255
 30
54.6871
  0
VERTEX
  8
Layer55
 10
-43199.7237
 20
-145679.1499
 30
54.6142
  0
VERTEX
  8
Layer55
 10
-43199.4191
 20
-145679.1302
 30
54.6567
  0
SEQEND
  8
Layer55
  0
POLYLINE
  8
Layer56
 66
1
 70
9
  0
VERTEX
  8
Layer56
 10
-43198.9077
 20
-145679.1167
 30
54.7705
  0
VERTEX
  8
Layer56
 10
-43199.0286
 20
-145679.0670
 30
54.8556
  0
VERTEX
  8
Layer56
 10
-43199.1562
 20
-145679.0758
 30
54.8151
  0
VERTEX
  8
Layer56
 10
-43199.1819
 20
-145679.1052
 30
54.7049
  0
VERTEX
  8
Layer56
 10
-43199.0976
 20
-145679.1466
 30
54.6033
  0
VERTEX
  8
Layer56
 10
-43198.9591
 20
-145679.1497
 30
54.6408
  0
SEQEND
  8
Layer56
  0
POLYLINE
  8
Layer57
 66
1
 70
9
  0
VERTEX
  8
Layer57
 10
-43198.4702
 20
-145679.0989
 30
54.7661
  0
VERTEX
  8
Layer57
 10
-43198.5677
 20
-145679.0809
 30
54.8452
  0
VERTEX
  8
Layer57
 10
-43198.7394
 20
-145679.0799
 30
54.8326
  0
VERTEX
  8
Layer57
 10
-43198.7752
 20
-145679.1098
 30
54.7193
  0
VERTEX
  8
Layer57
 10
-43198.6809
 20
-145679.1466
 30
54.6092
  0
VERTEX
  8
Layer57
 10
-43198.5353
 20
-145679.1362
 30
54.6486
  0
SEQEND
  8
Layer57
  0
POLYLINE
  8
Layer58
 66
1
 70
9
  0
VERTEX
  8
Layer58
 10
-43198.0185
 20
-145679.0977
 30
54.7747
  0
VERTEX
  8
Layer58
 10
-43198.1157
 20
-145679.0796
 30
54.8484
  0
VERTEX
  8
Layer58
 10
-43198.2315
 20
-145679.0684
 30
54.8724
  0
VERTEX
  8
Layer58
 10
-43198.3544
 20
-145679.0938
 30
54.7660
  0
VERTEX
  8
Layer58
 10
-43198.3129
 20
-145679.1250
 30
54.6770
  0
VERTEX
  8
Layer58
 10
-43198.2043
 20
-145679.1477
 30
54.6175
  0
VERTEX
  8
Layer58
 10
-43198.0889
 20
-145679.1418
 30
54.6367
  0
SEQEND
  8
Layer58
  0
POLYLINE
  8
Layer59
 66
1
 70
9
  0
VERTEX
  8
Layer59
 10
-43197.4508
 20
-145679.1079
 30
54.7803
  0
VERTEX
  8
Layer59
 10
-43197.6332
 20
-145679.0693
 30
54.8667
  0
VERTEX
  8
Layer59
 10
-43197.8653
 20
-145679.1030
 30
54.7508
  0
VERTEX
  8
Layer59
 10
-43197.7876
 20
-145679.1445
 30
54.6235
  0
VERTEX
  8
Layer59
 10
-43197.5410
 20
-145679.1491
 30
54.6316
  0
SEQEND
  8
Layer59
  0
POLYLINE
  8
Layer60
 66
1
 70
9
  0
VERTEX
  8
Layer60
 10
-43196.9396
 20
-145679.1004
 30
54.7701
  0
VERTEX
  8
Layer60
 10
-43197.0944
 20
-145679.0790
 30
54.8693
  0
VERTEX
  8
Layer60
 10
-43197.2776
 20
-145679.0929
 30
54.7979
  0
VERTEX
  8
Layer60
 10
-43197.2602
 20
-145679.1300
 30
54.6614
  0
VERTEX
  8
Layer60
 10
-43197.0488
 20
-145679.1379
 30
54.6201
  0
SEQEND
  8
Layer60
  0
POLYLINE
  8
Layer61
 66
1
 70
9
  0
VERTEX
  8
Layer61
 10
-43196.4845
 20
-145679.1152
 30
54.7356
  0
VERTEX
  8
Layer61
 10
-43196.5725
 20
-145679.0801
 30
54.8544
  0
VERTEX
  8
Layer61
 10
-43196.7504
 20
-145679.0759
 30
54.8313
  0
VERTEX
  8
Layer61
 10
-43196.8012
 20
-145679.1111
 30
54.7304
  0
VERTEX
  8
Layer61
 10
-43196.6921
 20
-145679.1431
 30
54.6285
  0
VERTEX
  8
Layer61
 10
-43196.5566
 20
-145679.1440
 30
54.6303
  0
SEQEND
  8
Layer61
  0
POLYLINE
  8
Layer62
 66
1
 70
9
  0
VERTEX
  8
Layer62
 10
-43195.8488
 20
-145679.0808
 30
54.8093
  0
VERTEX
  8
Layer62
 10
-43196.0812
 20
-145679.0768
 30
54.8631
  0
VERTEX
  8
Layer62
 10
-43196.3391
 20
-145679.1076
 30
54.7687
  0
VERTEX
  8
Layer62
 10
-43196.2319
 20
-145679.1504
 30
54.6067
  0
VERTEX
  8
Layer62
 10
-43195.8886
 20
-145679.1294
 30
54.6548
  0
SEQEND
  8
Layer62
  0
POLYLINE
  8
Layer63
 66
1
 70
9
  0
VERTEX
  8
Layer63
 10
-43195.3103
 20
-145679.1135
 30
54.7361
  0
VERTEX
  8
Layer63
 10
-43195.4032
 20
-145679.0715
 30
54.8507
  0
VERTEX
  8
Layer63
 10
-43195.5175
 20
-145679.0729
 30
54.8573
  0
VERTEX
  8
Layer63
 10
-43195.6458
 20
-145679.0923
 30
54.7785
  0
VERTEX
  8
Layer63
 10
-43195.6567
 20
-145679.1224
 30
54.6928
  0
VERTEX
  8
Layer63
 10
-43195.5494
 20
-145679.1483
 30
54.6177
  0
VERTEX
  8
Layer63
 10
-43195.3654
 20
-145679.1396
 30
54.6410
  0
SEQEND
  8
Layer63
  0
POLYLINE
  8
Layer64
 66
1
 70
9
  0
VERTEX
  8
Layer64
 10
-43194.7757
 20
-145679.1134
 30
54.7784
  0
VERTEX
  8
Layer64
 10
-43194.8810
 20
-145679.0722
 30
54.8695
  0
VERTEX
  8
Layer64
 10
-43195.1130
 20
-145679.0751
 30
54.8240
  0
VERTEX
  8
Layer64
 10
-43195.1668
 20
-145679.1181
 30
54.6887
  0
VERTEX
  8
Layer64
 10
-43194.9732
 20
-145679.1517
 30
54.5997
  0
VERTEX
  8
Layer64
 10
-43194.7767
 20
-145679.1495
 30
54.6756
  0
SEQEND
  8
Layer64
  0
POLYLINE
  8
Layer65
 66
1
 70
9
  0
VERTEX
  8
Layer65
 10
-43194.3544
 20
-145679.0805
 30
54.7965
  0
VERTEX
  8
Layer65
 10
-43194.4477
 20
-145679.0671
 30
54.8683
  0
VERTEX
  8
Layer65
 10
-43194.5622
 20
-145679.0890
 30
54.8294
  0
VERTEX
  8
Layer65
 10
-43194.5925
 20
-145679.1280
 30
54.6915
  0
VERTEX
  8
Layer65
 10
-43194.5189
 20
-145679.1545
 30
54.6112
  0
VERTEX
  8
Layer65
 10
-43194.3820
 20
-145679.1360
 30
54.6598
  0
SEQEND
  8
Layer65
  0
POLYLINE
  8
Layer66
 66
1
 70
9
  0
VERTEX
  8
Layer66
 10
-43193.5620
 20
-145679.1156
 30
54.7046
  0
VERTEX
  8
Layer66
 10
-43193.7921
 20
-145679.0756
 30
54.8429
  0
VERTEX
  8
Layer66
 10
-43194.0149
 20
-145679.0822
 30
54.8690
  0
VERTEX
  8
Layer66
 10
-43194.2064
 20
-145679.1058
 30
54.7986
  0
VERTEX
  8
Layer66
 10
-43193.9765
 20
-145679.1484
 30
54.6339
  0
VERTEX
  8
Layer66
 10
-43193.6824
 20
-145679.1383
 30
54.6162
  0
SEQEND
  8
Layer66
  0
POLYLINE
  8
Layer67
 66
1
 70
9
  0
VERTEX
  8
Layer67
 10
-43193.1088
 20
-145679.1011
 30
54.7493
  0
VERTEX
  8
Layer67
 10
-43193.2153
 20
-145679.0671
 30
54.8650
  0
VERTEX
  8
Layer67
 10
-43193.4016
 20
-145679.0939
 30
54.8293
  0
VERTEX
  8
Layer67
 10
-43193.3954
 20
-145679.1435
 30
54.6706
  0
VERTEX
  8
Layer67
 10
-43193.2371
 20
-145679.1399
 30
54.6238
  0
SEQEND
  8
Layer67
  0
POLYLINE
  8
Layer68
 66
1
 70
9
  0
VERTEX
  8
Layer68
 10
-43192.7440
 20
-145679.0954
 30
54.7906
  0
VERTEX
  8
Layer68
 10
-43192.8565
 20
-145679.0719
 30
54.8642
  0
VERTEX
  8
Layer68
 10
-43192.9855
 20
-145679.0976
 30
54.7882
  0
VERTEX
  8
Layer68
 10
-43192.9292
 20
-145679.1357
 30
54.6418
  0
VERTEX
  8
Layer68
 10
-43192.7915
 20
-145679.1358
 30
54.6460
  0
SEQEND
  8
Layer68
  0
ENDSEC
  0
EOF
