  0
SECTION
  2
HEADER
  0
ENDSEC
  0
SECTION
  2
ENTITIES
  0
POLYLINE
  8
Layer1
 66
1
 70
9
  0
VERTEX
  8
Layer1
 10
-43199.4132
 20
-145679.9394
 30
52.2456
  0
VERTEX
  8
Layer1
 10
-43199.6943
 20
-145679.8563
 30
52.5162
  0
VERTEX
  8
Layer1
 10
-43200.0522
 20
-145679.8500
 30
52.4650
  0
VERTEX
  8
Layer1
 10
-43200.1689
 20
-145679.8749
 30
52.2894
  0
VERTEX
  8
Layer1
 10
-43199.8818
 20
-145679.9712
 30
52.0222
  0
VERTEX
  8
Layer1
 10
-43199.5685
 20
-145679.9750
 30
52.0598
  0
SEQEND
  8
Layer1
  0
POLYLINE
  8
Layer2
 66
1
 70
9
  0
VERTEX
  8
Layer2
 10
-43198.5313
 20
-145679.9241
 30
52.2131
  0
VERTEX
  8
Layer2
 10
-43198.9158
 20
-145679.8297
 30
52.5252
  0
VERTEX
  8
Layer2
 10
-43199.3155
 20
-145679.8625
 30
52.4206
  0
VERTEX
  8
Layer2
 10
-43199.2359
 20
-145679.9703
 30
52.1011
  0
VERTEX
  8
Layer2
 10
-43198.8404
 20
-145679.9940
 30
52.0212
  0
SEQEND
  8
Layer2
  0
POLYLINE
  8
Layer3
 66
1
 70
9
  0
VERTEX
  8
Layer3
 10
-43197.9171
 20
-145679.9076
 30
52.3251
  0
VERTEX
  8
Layer3
 10
-43198.1046
 20
-145679.8204
 30
52.5044
  0
VERTEX
  8
Layer3
 10
-43198.4223
 20
-145679.8518
 30
52.3917
  0
VERTEX
  8
Layer3
 10
-43198.4517
 20
-145679.9382
 30
52.1829
  0
VERTEX
  8
Layer3
 10
-43198.2936
 20
-145680.0061
 30
52.0290
  0
VERTEX
  8
Layer3
 10
-43197.9470
 20
-145679.9730
 30
52.1382
  0
SEQEND
  8
Layer3
  0
POLYLINE
  8
Layer4
 66
1
 70
9
  0
VERTEX
  8
Layer4
 10
-43197.0589
 20
-145679.9114
 30
52.2633
  0
VERTEX
  8
Layer4
 10
-43197.3893
 20
-145679.8371
 30
52.5128
  0
VERTEX
  8
Layer4
 10
-43197.8276
 20
-145679.8708
 30
52.3873
  0
VERTEX
  8
Layer4
 10
-43197.7212
 20
-145679.9734
 30
52.0858
  0
VERTEX
  8
Layer4
 10
-43197.3347
 20
-145679.9891
 30
52.0304
  0
SEQEND
  8
Layer4
  0
POLYLINE
  8
Layer5
 66
1
 70
9
  0
VERTEX
  8
Layer5
 10
-43196.2545
 20
-145679.8725
 30
52.3406
  0
VERTEX
  8
Layer5
 10
-43196.6214
 20
-145679.8193
 30
52.5282
  0
VERTEX
  8
Layer5
 10
-43196.8904
 20
-145679.8649
 30
52.4140
  0
VERTEX
  8
Layer5
 10
-43196.9636
 20
-145679.9812
 30
52.1202
  0
VERTEX
  8
Layer5
 10
-43196.7126
 20
-145680.0126
 30
52.0180
  0
VERTEX
  8
Layer5
 10
-43196.3477
 20
-145679.9566
 30
52.1295
  0
SEQEND
  8
Layer5
  0
POLYLINE
  8
Layer6
 66
1
 70
9
  0
VERTEX
  8
Layer6
 10
-43195.5241
 20
-145679.8922
 30
52.3216
  0
VERTEX
  8
Layer6
 10
-43195.6826
 20
-145679.8338
 30
52.4838
  0
VERTEX
  8
Layer6
 10
-43195.9508
 20
-145679.8281
 30
52.5177
  0
VERTEX
  8
Layer6
 10
-43196.1770
 20
-145679.9042
 30
52.3341
  0
VERTEX
  8
Layer6
 10
-43196.1296
 20
-145679.9598
 30
52.1416
  0
VERTEX
  8
Layer6
 10
-43195.7975
 20
-145679.9934
 30
52.0096
  0
VERTEX
  8
Layer6
 10
-43195.5766
 20
-145679.9514
 30
52.1304
  0
SEQEND
  8
Layer6
  0
POLYLINE
  8
Layer7
 66
1
 70
9
  0
VERTEX
  8
Layer7
 10
-43194.7102
 20
-145679.9046
 30
52.2994
  0
VERTEX
  8
Layer7
 10
-43194.8252
 20
-145679.8553
 30
52.4473
  0
VERTEX
  8
Layer7
 10
-43195.1766
 20
-145679.8286
 30
52.5204
  0
VERTEX
  8
Layer7
 10
-43195.4182
 20
-145679.8663
 30
52.3919
  0
VERTEX
  8
Layer7
 10
-43195.3965
 20
-145679.9458
 30
52.1481
  0
VERTEX
  8
Layer7
 10
-43195.1266
 20
-145679.9887
 30
52.0108
  0
VERTEX
  8
Layer7
 10
-43194.7905
 20
-145679.9866
 30
52.0619
  0
SEQEND
  8
Layer7
  0
POLYLINE
  8
Layer8
 66
1
 70
9
  0
VERTEX
  8
Layer8
 10
-43193.9288
 20
-145679.8626
 30
52.3732
  0
VERTEX
  8
Layer8
 10
-43194.2414
 20
-145679.8341
 30
52.5261
  0
VERTEX
  8
Layer8
 10
-43194.5901
 20
-145679.9013
 30
52.3760
  0
VERTEX
  8
Layer8
 10
-43194.5234
 20
-145679.9826
 30
52.1071
  0
VERTEX
  8
Layer8
 10
-43194.0970
 20
-145679.9779
 30
52.0434
  0
SEQEND
  8
Layer8
  0
POLYLINE
  8
Layer9
 66
1
 70
9
  0
VERTEX
  8
Layer9
 10
-43192.9367
 20
-145679.8826
 30
52.3265
  0
VERTEX
  8
Layer9
 10
-43193.2106
 20
-145679.8334
 30
52.5130
  0
VERTEX
  8
Layer9
 10
-43193.6003
 20
-145679.8566
 30
52.4833
  0
VERTEX
  8
Layer9
 10
-43193.8007
 20
-145679.9032
 30
52.3311
  0
VERTEX
  8
Layer9
 10
-43193.7462
 20
-145679.9692
 30
52.0944
  0
VERTEX
  8
Layer9
 10
-43193.3247
 20
-145679.9826
 30
52.0230
  0
VERTEX
  8
Layer9
 10
-43193.0486
 20
-145679.9475
 30
52.1224
  0
SEQEND
  8
Layer9
  0
POLYLINE
  8
Layer10
 66
1
 70
9
  0
VERTEX
  8
Layer10
 10
-43199.6776
 20
-145679.7503
 30
52.8724
  0
VERTEX
  8
Layer10
 10
-43199.8334
 20
-145679.6988
 30
53.0236
  0
VERTEX
  8
Layer10
 10
-43200.1387
 20
-145679.6555
 30
53.0372
  0
VERTEX
  8
Layer10
 10
-43200.3544
 20
-145679.6678
 30
52.9177
  0
VERTEX
  8
Layer10
 10
-43200.3169
 20
-145679.7538
 30
52.6711
  0
VERTEX
  8
Layer10
 10
-43200.0542
 20
-145679.7987
 30
52.5675
  0
VERTEX
  8
Layer10
 10
-43199.7996
 20
-145679.8092
 30
52.6197
  0
SEQEND
  8
Layer10
  0
POLYLINE
  8
Layer11
 66
1
 70
9
  0
VERTEX
  8
Layer11
 10
-43198.7674
 20
-145679.6999
 30
52.9419
  0
VERTEX
  8
Layer11
 10
-43198.9339
 20
-145679.6581
 30
53.0330
  0
VERTEX
  8
Layer11
 10
-43199.3838
 20
-145679.6523
 30
52.9992
  0
VERTEX
  8
Layer11
 10
-43199.5952
 20
-145679.7245
 30
52.7970
  0
VERTEX
  8
Layer11
 10
-43199.4460
 20
-145679.7969
 30
52.6175
  0
VERTEX
  8
Layer11
 10
-43199.1323
 20
-145679.8272
 30
52.5834
  0
VERTEX
  8
Layer11
 10
-43198.8402
 20
-145679.7897
 30
52.6949
  0
SEQEND
  8
Layer11
  0
POLYLINE
  8
Layer12
 66
1
 70
9
  0
VERTEX
  8
Layer12
 10
-43197.9614
 20
-145679.7467
 30
52.8760
  0
VERTEX
  8
Layer12
 10
-43198.0775
 20
-145679.6950
 30
52.9830
  0
VERTEX
  8
Layer12
 10
-43198.3991
 20
-145679.6474
 30
53.0480
  0
VERTEX
  8
Layer12
 10
-43198.6560
 20
-145679.6728
 30
52.9154
  0
VERTEX
  8
Layer12
 10
-43198.6489
 20
-145679.7363
 30
52.7109
  0
VERTEX
  8
Layer12
 10
-43198.4147
 20
-145679.8090
 30
52.5794
  0
VERTEX
  8
Layer12
 10
-43198.0696
 20
-145679.8155
 30
52.6242
  0
SEQEND
  8
Layer12
  0
POLYLINE
  8
Layer13
 66
1
 70
9
  0
VERTEX
  8
Layer13
 10
-43197.1272
 20
-145679.7071
 30
52.8878
  0
VERTEX
  8
Layer13
 10
-43197.2939
 20
-145679.6779
 30
53.0299
  0
VERTEX
  8
Layer13
 10
-43197.7185
 20
-145679.6832
 30
53.0206
  0
VERTEX
  8
Layer13
 10
-43197.8875
 20
-145679.7467
 30
52.8157
  0
VERTEX
  8
Layer13
 10
-43197.6549
 20
-145679.8017
 30
52.5901
  0
VERTEX
  8
Layer13
 10
-43197.2326
 20
-145679.7816
 30
52.6092
  0
SEQEND
  8
Layer13
  0
POLYLINE
  8
Layer14
 66
1
 70
9
  0
VERTEX
  8
Layer14
 10
-43196.3900
 20
-145679.6954
 30
52.8563
  0
VERTEX
  8
Layer14
 10
-43196.6410
 20
-145679.6548
 30
53.0448
  0
VERTEX
  8
Layer14
 10
-43197.0037
 20
-145679.7206
 30
52.9066
  0
VERTEX
  8
Layer14
 10
-43196.8827
 20
-145679.8091
 30
52.6070
  0
VERTEX
  8
Layer14
 10
-43196.4990
 20
-145679.7826
 30
52.6299
  0
SEQEND
  8
Layer14
  0
POLYLINE
  8
Layer15
 66
1
 70
9
  0
VERTEX
  8
Layer15
 10
-43195.5759
 20
-145679.7132
 30
52.9052
  0
VERTEX
  8
Layer15
 10
-43195.7594
 20
-145679.6605
 30
53.0314
  0
VERTEX
  8
Layer15
 10
-43196.0522
 20
-145679.6402
 30
53.0321
  0
VERTEX
  8
Layer15
 10
-43196.2997
 20
-145679.6965
 30
52.8788
  0
VERTEX
  8
Layer15
 10
-43196.2912
 20
-145679.7685
 30
52.6941
  0
VERTEX
  8
Layer15
 10
-43195.9501
 20
-145679.8277
 30
52.5773
  0
VERTEX
  8
Layer15
 10
-43195.6519
 20
-145679.8076
 30
52.6622
  0
SEQEND
  8
Layer15
  0
POLYLINE
  8
Layer16
 66
1
 70
9
  0
VERTEX
  8
Layer16
 10
-43194.9328
 20
-145679.7115
 30
52.8661
  0
VERTEX
  8
Layer16
 10
-43195.1765
 20
-145679.6512
 30
53.0557
  0
VERTEX
  8
Layer16
 10
-43195.4851
 20
-145679.7115
 30
52.9001
  0
VERTEX
  8
Layer16
 10
-43195.4117
 20
-145679.7948
 30
52.6290
  0
VERTEX
  8
Layer16
 10
-43195.0860
 20
-145679.8081
 30
52.5952
  0
SEQEND
  8
Layer16
  0
POLYLINE
  8
Layer17
 66
1
 70
9
  0
VERTEX
  8
Layer17
 10
-43194.0352
 20
-145679.7021
 30
52.8778
  0
VERTEX
  8
Layer17
 10
-43194.1750
 20
-145679.6743
 30
52.9997
  0
VERTEX
  8
Layer17
 10
-43194.5774
 20
-145679.6653
 30
53.0557
  0
VERTEX
  8
Layer17
 10
-43194.8459
 20
-145679.7270
 30
52.8838
  0
VERTEX
  8
Layer17
 10
-43194.8056
 20
-145679.7791
 30
52.7246
  0
VERTEX
  8
Layer17
 10
-43194.4227
 20
-145679.8017
 30
52.5726
  0
VERTEX
  8
Layer17
 10
-43194.1197
 20
-145679.7767
 30
52.6291
  0
SEQEND
  8
Layer17
  0
POLYLINE
  8
Layer18
 66
1
 70
9
  0
VERTEX
  8
Layer18
 10
-43193.4316
 20
-145679.7399
 30
52.7976
  0
VERTEX
  8
Layer18
 10
-43193.5101
 20
-145679.6756
 30
52.9918
  0
VERTEX
  8
Layer18
 10
-43193.7935
 20
-145679.6554
 30
53.0286
  0
VERTEX
  8
Layer18
 10
-43193.9237
 20
-145679.6828
 30
52.9333
  0
VERTEX
  8
Layer18
 10
-43193.9356
 20
-145679.7665
 30
52.7243
  0
VERTEX
  8
Layer18
 10
-43193.7843
 20
-145679.8100
 30
52.5981
  0
VERTEX
  8
Layer18
 10
-43193.5228
 20
-145679.8028
 30
52.6288
  0
SEQEND
  8
Layer18
  0
POLYLINE
  8
Layer19
 66
1
 70
9
  0
VERTEX
  8
Layer19
 10
-43192.7460
 20
-145679.7201
 30
52.8791
  0
VERTEX
  8
Layer19
 10
-43193.0607
 20
-145679.6544
 30
53.0508
  0
VERTEX
  8
Layer19
 10
-43193.2538
 20
-145679.6726
 30
52.9820
  0
VERTEX
  8
Layer19
 10
-43193.3787
 20
-145679.7495
 30
52.7522
  0
VERTEX
  8
Layer19
 10
-43193.1061
 20
-145679.8192
 30
52.5740
  0
VERTEX
  8
Layer19
 10
-43192.8704
 20
-145679.7949
 30
52.6346
  0
SEQEND
  8
Layer19
  0
POLYLINE
  8
Layer20
 66
1
 70
9
  0
VERTEX
  8
Layer20
 10
-43199.7497
 20
-145679.5407
 30
53.3933
  0
VERTEX
  8
Layer20
 10
-43199.9587
 20
-145679.5024
 30
53.5435
  0
VERTEX
  8
Layer20
 10
-43200.1644
 20
-145679.5475
 30
53.4272
  0
VERTEX
  8
Layer20
 10
-43200.1104
 20
-145679.6212
 30
53.1483
  0
VERTEX
  8
Layer20
 10
-43199.8464
 20
-145679.6231
 30
53.1315
  0
SEQEND
  8
Layer20
  0
POLYLINE
  8
Layer21
 66
1
 70
9
  0
VERTEX
  8
Layer21
 10
-43199.0209
 20
-145679.5272
 30
53.4094
  0
VERTEX
  8
Layer21
 10
-43199.3595
 20
-145679.4950
 30
53.5359
  0
VERTEX
  8
Layer21
 10
-43199.6727
 20
-145679.5683
 30
53.3363
  0
VERTEX
  8
Layer21
 10
-43199.5059
 20
-145679.6473
 30
53.1209
  0
VERTEX
  8
Layer21
 10
-43199.1296
 20
-145679.6221
 30
53.1728
  0
SEQEND
  8
Layer21
  0
POLYLINE
  8
Layer22
 66
1
 70
9
  0
VERTEX
  8
Layer22
 10
-43198.4596
 20
-145679.5471
 30
53.3837
  0
VERTEX
  8
Layer22
 10
-43198.6433
 20
-145679.5116
 30
53.5350
  0
VERTEX
  8
Layer22
 10
-43198.9021
 20
-145679.5342
 30
53.4476
  0
VERTEX
  8
Layer22
 10
-43198.9473
 20
-145679.5838
 30
53.2701
  0
VERTEX
  8
Layer22
 10
-43198.7015
 20
-145679.6315
 30
53.1031
  0
VERTEX
  8
Layer22
 10
-43198.4872
 20
-145679.6049
 30
53.2076
  0
SEQEND
  8
Layer22
  0
POLYLINE
  8
Layer23
 66
1
 70
9
  0
VERTEX
  8
Layer23
 10
-43197.7226
 20
-145679.5673
 30
53.3599
  0
VERTEX
  8
Layer23
 10
-43198.0337
 20
-145679.5009
 30
53.5281
  0
VERTEX
  8
Layer23
 10
-43198.3410
 20
-145679.5219
 30
53.4478
  0
VERTEX
  8
Layer23
 10
-43198.3246
 20
-145679.6174
 30
53.1808
  0
VERTEX
  8
Layer23
 10
-43197.8621
 20
-145679.6339
 30
53.1463
  0
SEQEND
  8
Layer23
  0
POLYLINE
  8
Layer24
 66
1
 70
9
  0
VERTEX
  8
Layer24
 10
-43196.9549
 20
-145679.5750
 30
53.3256
  0
VERTEX
  8
Layer24
 10
-43197.1927
 20
-145679.5222
 30
53.5372
  0
VERTEX
  8
Layer24
 10
-43197.5010
 20
-145679.5188
 30
53.5075
  0
VERTEX
  8
Layer24
 10
-43197.6781
 20
-145679.5577
 30
53.3439
  0
VERTEX
  8
Layer24
 10
-43197.5855
 20
-145679.5982
 30
53.1882
  0
VERTEX
  8
Layer24
 10
-43197.3576
 20
-145679.6315
 30
53.0945
  0
VERTEX
  8
Layer24
 10
-43197.0070
 20
-145679.6151
 30
53.1917
  0
SEQEND
  8
Layer24
  0
POLYLINE
  8
Layer25
 66
1
 70
9
  0
VERTEX
  8
Layer25
 10
-43196.2231
 20
-145679.5371
 30
53.4071
  0
VERTEX
  8
Layer25
 10
-43196.5288
 20
-145679.4856
 30
53.5393
  0
VERTEX
  8
Layer25
 10
-43196.8352
 20
-145679.5297
 30
53.4216
  0
VERTEX
  8
Layer25
 10
-43196.8758
 20
-145679.6096
 30
53.2343
  0
VERTEX
  8
Layer25
 10
-43196.5884
 20
-145679.6599
 30
53.1087
  0
VERTEX
  8
Layer25
 10
-43196.2671
 20
-145679.6080
 30
53.2292
  0
SEQEND
  8
Layer25
  0
POLYLINE
  8
Layer26
 66
1
 70
9
  0
VERTEX
  8
Layer26
 10
-43195.4843
 20
-145679.5641
 30
53.3520
  0
VERTEX
  8
Layer26
 10
-43195.7844
 20
-145679.4837
 30
53.5294
  0
VERTEX
  8
Layer26
 10
-43196.1203
 20
-145679.5331
 30
53.4026
  0
VERTEX
  8
Layer26
 10
-43196.0526
 20
-145679.6327
 30
53.1624
  0
VERTEX
  8
Layer26
 10
-43195.6162
 20
-145679.6454
 30
53.1491
  0
SEQEND
  8
Layer26
  0
POLYLINE
  8
Layer27
 66
1
 70
9
  0
VERTEX
  8
Layer27
 10
-43194.7659
 20
-145679.5838
 30
53.3597
  0
VERTEX
  8
Layer27
 10
-43195.0011
 20
-145679.5259
 30
53.5303
  0
VERTEX
  8
Layer27
 10
-43195.2621
 20
-145679.5202
 30
53.5036
  0
VERTEX
  8
Layer27
 10
-43195.4079
 20
-145679.5639
 30
53.2887
  0
VERTEX
  8
Layer27
 10
-43195.1451
 20
-145679.6247
 30
53.1011
  0
VERTEX
  8
Layer27
 10
-43194.8387
 20
-145679.6252
 30
53.1560
  0
SEQEND
  8
Layer27
  0
POLYLINE
  8
Layer28
 66
1
 70
9
  0
VERTEX
  8
Layer28
 10
-43193.9551
 20
-145679.5689
 30
53.3696
  0
VERTEX
  8
Layer28
 10
-43194.1161
 20
-145679.5245
 30
53.5048
  0
VERTEX
  8
Layer28
 10
-43194.4626
 20
-145679.5089
 30
53.5150
  0
VERTEX
  8
Layer28
 10
-43194.6800
 20
-145679.5479
 30
53.3547
  0
VERTEX
  8
Layer28
 10
-43194.5674
 20
-145679.6076
 30
53.1620
  0
VERTEX
  8
Layer28
 10
-43194.3113
 20
-145679.6398
 30
53.1031
  0
VERTEX
  8
Layer28
 10
-43194.0157
 20
-145679.6231
 30
53.1741
  0
SEQEND
  8
Layer28
  0
POLYLINE
  8
Layer29
 66
1
 70
9
  0
VERTEX
  8
Layer29
 10
-43193.0686
 20
-145679.5417
 30
53.3744
  0
VERTEX
  8
Layer29
 10
-43193.4744
 20
-145679.4952
 30
53.5351
  0
VERTEX
  8
Layer29
 10
-43193.8346
 20
-145679.5526
 30
53.4106
  0
VERTEX
  8
Layer29
 10
-43193.6852
 20
-145679.6370
 30
53.1257
  0
VERTEX
  8
Layer29
 10
-43193.2577
 20
-145679.6277
 30
53.1419
  0
SEQEND
  8
Layer29
  0
POLYLINE
  8
Layer30
 66
1
 70
9
  0
VERTEX
  8
Layer30
 10
-43192.7080
 20
-145679.5628
 30
53.3473
  0
VERTEX
  8
Layer30
 10
-43192.7531
 20
-145679.5188
 30
53.4897
  0
VERTEX
  8
Layer30
 10
-43192.9218
 20
-145679.5067
 30
53.5134
  0
VERTEX
  8
Layer30
 10
-43193.0172
 20
-145679.5548
 30
53.3571
  0
VERTEX
  8
Layer30
 10
-43193.0018
 20
-145679.6134
 30
53.2021
  0
VERTEX
  8
Layer30
 10
-43192.9096
 20
-145679.6502
 30
53.1006
  0
VERTEX
  8
Layer30
 10
-43192.7807
 20
-145679.6372
 30
53.1475
  0
SEQEND
  8
Layer30
  0
POLYLINE
  8
Layer31
 66
1
 70
9
  0
VERTEX
  8
Layer31
 10
-43199.4038
 20
-145679.4054
 30
53.7522
  0
VERTEX
  8
Layer31
 10
-43199.6229
 20
-145679.3634
 30
53.9696
  0
VERTEX
  8
Layer31
 10
-43199.8457
 20
-145679.3742
 30
54.0050
  0
VERTEX
  8
Layer31
 10
-43200.1006
 20
-145679.4211
 30
53.8794
  0
VERTEX
  8
Layer31
 10
-43200.0241
 20
-145679.4668
 30
53.6661
  0
VERTEX
  8
Layer31
 10
-43199.7597
 20
-145679.4686
 30
53.5705
  0
VERTEX
  8
Layer31
 10
-43199.4788
 20
-145679.4408
 30
53.6395
  0
SEQEND
  8
Layer31
  0
POLYLINE
  8
Layer32
 66
1
 70
9
  0
VERTEX
  8
Layer32
 10
-43198.6399
 20
-145679.4204
 30
53.7641
  0
VERTEX
  8
Layer32
 10
-43198.9116
 20
-145679.3573
 30
53.9822
  0
VERTEX
  8
Layer32
 10
-43199.3432
 20
-145679.3834
 30
53.8768
  0
VERTEX
  8
Layer32
 10
-43199.2697
 20
-145679.4619
 30
53.6718
  0
VERTEX
  8
Layer32
 10
-43198.8799
 20
-145679.4890
 30
53.5897
  0
SEQEND
  8
Layer32
  0
POLYLINE
  8
Layer33
 66
1
 70
9
  0
VERTEX
  8
Layer33
 10
-43198.1670
 20
-145679.3959
 30
53.8559
  0
VERTEX
  8
Layer33
 10
-43198.2861
 20
-145679.3526
 30
53.9789
  0
VERTEX
  8
Layer33
 10
-43198.5375
 20
-145679.3731
 30
53.9179
  0
VERTEX
  8
Layer33
 10
-43198.5973
 20
-145679.4267
 30
53.7707
  0
VERTEX
  8
Layer33
 10
-43198.3868
 20
-145679.4893
 30
53.5868
  0
VERTEX
  8
Layer33
 10
-43198.1928
 20
-145679.4552
 30
53.6765
  0
SEQEND
  8
Layer33
  0
POLYLINE
  8
Layer34
 66
1
 70
9
  0
VERTEX
  8
Layer34
 10
-43197.6615
 20
-145679.4056
 30
53.8624
  0
VERTEX
  8
Layer34
 10
-43197.9346
 20
-145679.3311
 30
53.9754
  0
VERTEX
  8
Layer34
 10
-43198.0916
 20
-145679.3941
 30
53.8255
  0
VERTEX
  8
Layer34
 10
-43198.0206
 20
-145679.4707
 30
53.6355
  0
VERTEX
  8
Layer34
 10
-43197.7547
 20
-145679.4987
 30
53.6177
  0
SEQEND
  8
Layer34
  0
POLYLINE
  8
Layer35
 66
1
 70
9
  0
VERTEX
  8
Layer35
 10
-43196.9500
 20
-145679.4440
 30
53.7459
  0
VERTEX
  8
Layer35
 10
-43197.2632
 20
-145679.3682
 30
53.9937
  0
VERTEX
  8
Layer35
 10
-43197.5611
 20
-145679.3724
 30
53.8983
  0
VERTEX
  8
Layer35
 10
-43197.5299
 20
-145679.4361
 30
53.6893
  0
VERTEX
  8
Layer35
 10
-43197.1829
 20
-145679.4817
 30
53.5748
  0
SEQEND
  8
Layer35
  0
POLYLINE
  8
Layer36
 66
1
 70
9
  0
VERTEX
  8
Layer36
 10
-43196.4367
 20
-145679.3755
 30
53.8457
  0
VERTEX
  8
Layer36
 10
-43196.6226
 20
-145679.3454
 30
53.9974
  0
VERTEX
  8
Layer36
 10
-43196.8228
 20
-145679.3849
 30
53.9450
  0
VERTEX
  8
Layer36
 10
-43196.8938
 20
-145679.4493
 30
53.7533
  0
VERTEX
  8
Layer36
 10
-43196.7603
 20
-145679.4888
 30
53.6061
  0
VERTEX
  8
Layer36
 10
-43196.5119
 20
-145679.4549
 30
53.6150
  0
SEQEND
  8
Layer36
  0
POLYLINE
  8
Layer37
 66
1
 70
9
  0
VERTEX
  8
Layer37
 10
-43195.7598
 20
-145679.4116
 30
53.7468
  0
VERTEX
  8
Layer37
 10
-43195.8811
 20
-145679.3672
 30
53.9445
  0
VERTEX
  8
Layer37
 10
-43196.1724
 20
-145679.3651
 30
53.9888
  0
VERTEX
  8
Layer37
 10
-43196.3225
 20
-145679.4067
 30
53.9013
  0
VERTEX
  8
Layer37
 10
-43196.3199
 20
-145679.4541
 30
53.7064
  0
VERTEX
  8
Layer37
 10
-43196.1068
 20
-145679.4736
 30
53.5758
  0
VERTEX
  8
Layer37
 10
-43195.8228
 20
-145679.4430
 30
53.6498
  0
SEQEND
  8
Layer37
  0
POLYLINE
  8
Layer38
 66
1
 70
9
  0
VERTEX
  8
Layer38
 10
-43194.9727
 20
-145679.4058
 30
53.8456
  0
VERTEX
  8
Layer38
 10
-43195.2213
 20
-145679.3649
 30
53.9792
  0
VERTEX
  8
Layer38
 10
-43195.6102
 20
-145679.3699
 30
53.9337
  0
VERTEX
  8
Layer38
 10
-43195.6984
 20
-145679.4199
 30
53.7803
  0
VERTEX
  8
Layer38
 10
-43195.4703
 20
-145679.4793
 30
53.5990
  0
VERTEX
  8
Layer38
 10
-43195.1393
 20
-145679.4774
 30
53.5985
  0
SEQEND
  8
Layer38
  0
POLYLINE
  8
Layer39
 66
1
 70
9
  0
VERTEX
  8
Layer39
 10
-43194.5037
 20
-145679.4175
 30
53.8545
  0
VERTEX
  8
Layer39
 10
-43194.6694
 20
-145679.3660
 30
53.9966
  0
VERTEX
  8
Layer39
 10
-43194.8550
 20
-145679.3726
 30
53.9262
  0
VERTEX
  8
Layer39
 10
-43194.8926
 20
-145679.4241
 30
53.7084
  0
VERTEX
  8
Layer39
 10
-43194.7180
 20
-145679.4694
 30
53.5803
  0
VERTEX
  8
Layer39
 10
-43194.5667
 20
-145679.4655
 30
53.6359
  0
SEQEND
  8
Layer39
  0
POLYLINE
  8
Layer40
 66
1
 70
9
  0
VERTEX
  8
Layer40
 10
-43193.9636
 20
-145679.4119
 30
53.8247
  0
VERTEX
  8
Layer40
 10
-43194.1082
 20
-145679.3615
 30
53.9771
  0
VERTEX
  8
Layer40
 10
-43194.3930
 20
-145679.3817
 30
53.9053
  0
VERTEX
  8
Layer40
 10
-43194.4377
 20
-145679.4291
 30
53.7448
  0
VERTEX
  8
Layer40
 10
-43194.2650
 20
-145679.4789
 30
53.5790
  0
VERTEX
  8
Layer40
 10
-43194.0725
 20
-145679.4728
 30
53.6140
  0
SEQEND
  8
Layer40
  0
POLYLINE
  8
Layer41
 66
1
 70
9
  0
VERTEX
  8
Layer41
 10
-43193.1736
 20
-145679.4643
 30
53.7478
  0
VERTEX
  8
Layer41
 10
-43193.3332
 20
-145679.3950
 30
53.9421
  0
VERTEX
  8
Layer41
 10
-43193.6342
 20
-145679.3434
 30
53.9978
  0
VERTEX
  8
Layer41
 10
-43193.8839
 20
-145679.3579
 30
53.8808
  0
VERTEX
  8
Layer41
 10
-43193.8120
 20
-145679.4243
 30
53.6749
  0
VERTEX
  8
Layer41
 10
-43193.5656
 20
-145679.4824
 30
53.5840
  0
VERTEX
  8
Layer41
 10
-43193.3242
 20
-145679.5070
 30
53.5936
  0
SEQEND
  8
Layer41
  0
POLYLINE
  8
Layer42
 66
1
 70
9
  0
VERTEX
  8
Layer42
 10
-43192.7289
 20
-145679.3995
 30
53.8475
  0
VERTEX
  8
Layer42
 10
-43192.9168
 20
-145679.3490
 30
54.0002
  0
VERTEX
  8
Layer42
 10
-43193.1079
 20
-145679.4007
 30
53.8277
  0
VERTEX
  8
Layer42
 10
-43192.9898
 20
-145679.4777
 30
53.6049
  0
VERTEX
  8
Layer42
 10
-43192.7585
 20
-145679.4569
 30
53.6519
  0
SEQEND
  8
Layer42
  0
POLYLINE
  8
Layer43
 66
1
 70
9
  0
VERTEX
  8
Layer43
 10
-43199.7608
 20
-145679.2711
 30
54.2409
  0
VERTEX
  8
Layer43
 10
-43199.8972
 20
-145679.2188
 30
54.3587
  0
VERTEX
  8
Layer43
 10
-43200.1986
 20
-145679.2355
 30
54.3310
  0
VERTEX
  8
Layer43
 10
-43200.3140
 20
-145679.2915
 30
54.2051
  0
VERTEX
  8
Layer43
 10
-43200.2437
 20
-145679.3312
 30
54.0825
  0
VERTEX
  8
Layer43
 10
-43199.9859
 20
-145679.3486
 30
54.0422
  0
VERTEX
  8
Layer43
 10
-43199.8265
 20
-145679.3213
 30
54.1145
  0
SEQEND
  8
Layer43
  0
POLYLINE
  8
Layer44
 66
1
 70
9
  0
VERTEX
  8
Layer44
 10
-43199.2420
 20
-145679.2752
 30
54.2196
  0
VERTEX
  8
Layer44
 10
-43199.4200
 20
-145679.2271
 30
54.3678
  0
VERTEX
  8
Layer44
 10
-43199.6534
 20
-145679.2466
 30
54.3239
  0
VERTEX
  8
Layer44
 10
-43199.6394
 20
-145679.3273
 30
54.0923
  0
VERTEX
  8
Layer44
 10
-43199.4118
 20
-145679.3319
 30
54.0439
  0
SEQEND
  8
Layer44
  0
POLYLINE
  8
Layer45
 66
1
 70
9
  0
VERTEX
  8
Layer45
 10
-43198.5509
 20
-145679.2745
 30
54.2296
  0
VERTEX
  8
Layer45
 10
-43198.7521
 20
-145679.2349
 30
54.3614
  0
VERTEX
  8
Layer45
 10
-43199.0905
 20
-145679.2417
 30
54.3539
  0
VERTEX
  8
Layer45
 10
-43199.1768
 20
-145679.2801
 30
54.2356
  0
VERTEX
  8
Layer45
 10
-43199.0338
 20
-145679.3206
 30
54.0726
  0
VERTEX
  8
Layer45
 10
-43198.6218
 20
-145679.3257
 30
54.0733
  0
SEQEND
  8
Layer45
  0
POLYLINE
  8
Layer46
 66
1
 70
9
  0
VERTEX
  8
Layer46
 10
-43197.9183
 20
-145679.2347
 30
54.2925
  0
VERTEX
  8
Layer46
 10
-43198.0997
 20
-145679.2152
 30
54.3786
  0
VERTEX
  8
Layer46
 10
-43198.4360
 20
-145679.2616
 30
54.2862
  0
VERTEX
  8
Layer46
 10
-43198.4743
 20
-145679.3226
 30
54.1438
  0
VERTEX
  8
Layer46
 10
-43198.2375
 20
-145679.3471
 30
54.0449
  0
VERTEX
  8
Layer46
 10
-43198.0071
 20
-145679.3263
 30
54.0922
  0
SEQEND
  8
Layer46
  0
POLYLINE
  8
Layer47
 66
1
 70
9
  0
VERTEX
  8
Layer47
 10
-43197.2665
 20
-145679.2667
 30
54.2598
  0
VERTEX
  8
Layer47
 10
-43197.4435
 20
-145679.2276
 30
54.3621
  0
VERTEX
  8
Layer47
 10
-43197.6646
 20
-145679.2335
 30
54.3710
  0
VERTEX
  8
Layer47
 10
-43197.8152
 20
-145679.2631
 30
54.2768
  0
VERTEX
  8
Layer47
 10
-43197.8002
 20
-145679.3090
 30
54.1247
  0
VERTEX
  8
Layer47
 10
-43197.5246
 20
-145679.3365
 30
54.0415
  0
VERTEX
  8
Layer47
 10
-43197.3258
 20
-145679.3162
 30
54.1036
  0
SEQEND
  8
Layer47
  0
POLYLINE
  8
Layer48
 66
1
 70
9
  0
VERTEX
  8
Layer48
 10
-43196.5035
 20
-145679.2491
 30
54.2780
  0
VERTEX
  8
Layer48
 10
-43196.7270
 20
-145679.2190
 30
54.3831
  0
VERTEX
  8
Layer48
 10
-43197.0583
 20
-145679.2472
 30
54.3173
  0
VERTEX
  8
Layer48
 10
-43197.2145
 20
-145679.3070
 30
54.1735
  0
VERTEX
  8
Layer48
 10
-43197.0907
 20
-145679.3461
 30
54.0554
  0
VERTEX
  8
Layer48
 10
-43196.7929
 20
-145679.3412
 30
54.0497
  0
VERTEX
  8
Layer48
 10
-43196.5299
 20
-145679.2846
 30
54.1712
  0
SEQEND
  8
Layer48
  0
POLYLINE
  8
Layer49
 66
1
 70
9
  0
VERTEX
  8
Layer49
 10
-43196.0618
 20
-145679.2774
 30
54.2500
  0
VERTEX
  8
Layer49
 10
-43196.1945
 20
-145679.2320
 30
54.3762
  0
VERTEX
  8
Layer49
 10
-43196.4110
 20
-145679.2599
 30
54.2933
  0
VERTEX
  8
Layer49
 10
-43196.4226
 20
-145679.2993
 30
54.1407
  0
VERTEX
  8
Layer49
 10
-43196.2914
 20
-145679.3340
 30
54.0414
  0
VERTEX
  8
Layer49
 10
-43196.1165
 20
-145679.3144
 30
54.0958
  0
SEQEND
  8
Layer49
  0
POLYLINE
  8
Layer50
 66
1
 70
9
  0
VERTEX
  8
Layer50
 10
-43195.2737
 20
-145679.2858
 30
54.1814
  0
VERTEX
  8
Layer50
 10
-43195.4739
 20
-145679.2400
 30
54.3454
  0
VERTEX
  8
Layer50
 10
-43195.8464
 20
-145679.2385
 30
54.3776
  0
VERTEX
  8
Layer50
 10
-43196.0095
 20
-145679.2700
 30
54.2728
  0
VERTEX
  8
Layer50
 10
-43195.7195
 20
-145679.3320
 30
54.0474
  0
VERTEX
  8
Layer50
 10
-43195.4096
 20
-145679.3290
 30
54.0537
  0
SEQEND
  8
Layer50
  0
POLYLINE
  8
Layer51
 66
1
 70
9
  0
VERTEX
  8
Layer51
 10
-43194.6562
 20
-145679.2647
 30
54.2703
  0
VERTEX
  8
Layer51
 10
-43194.8170
 20
-145679.2393
 30
54.3791
  0
VERTEX
  8
Layer51
 10
-43195.0941
 20
-145679.2425
 30
54.3478
  0
VERTEX
  8
Layer51
 10
-43195.2054
 20
-145679.2925
 30
54.1530
  0
VERTEX
  8
Layer51
 10
-43195.0163
 20
-145679.3319
 30
54.0447
  0
VERTEX
  8
Layer51
 10
-43194.7074
 20
-145679.3085
 30
54.1100
  0
SEQEND
  8
Layer51
  0
POLYLINE
  8
Layer52
 66
1
 70
9
  0
VERTEX
  8
Layer52
 10
-43194.1131
 20
-145679.2818
 30
54.2671
  0
VERTEX
  8
Layer52
 10
-43194.3258
 20
-145679.2178
 30
54.3720
  0
VERTEX
  8
Layer52
 10
-43194.5454
 20
-145679.2293
 30
54.3057
  0
VERTEX
  8
Layer52
 10
-43194.5299
 20
-145679.3089
 30
54.1006
  0
VERTEX
  8
Layer52
 10
-43194.1923
 20
-145679.3434
 30
54.0813
  0
SEQEND
  8
Layer52
  0
POLYLINE
  8
Layer53
 66
1
 70
9
  0
VERTEX
  8
Layer53
 10
-43193.5319
 20
-145679.2638
 30
54.2505
  0
VERTEX
  8
Layer53
 10
-43193.7106
 20
-145679.2161
 30
54.3738
  0
VERTEX
  8
Layer53
 10
-43193.8702
 20
-145679.2212
 30
54.3653
  0
VERTEX
  8
Layer53
 10
-43194.0566
 20
-145679.2883
 30
54.1949
  0
VERTEX
  8
Layer53
 10
-43193.9979
 20
-145679.3247
 30
54.1009
  0
VERTEX
  8
Layer53
 10
-43193.8162
 20
-145679.3462
 30
54.0476
  0
VERTEX
  8
Layer53
 10
-43193.5950
 20
-145679.3266
 30
54.1027
  0
SEQEND
  8
Layer53
  0
POLYLINE
  8
Layer54
 66
1
 70
9
  0
VERTEX
  8
Layer54
 10
-43193.0107
 20
-145679.2630
 30
54.2524
  0
VERTEX
  8
Layer54
 10
-43193.1751
 20
-145679.2335
 30
54.3706
  0
VERTEX
  8
Layer54
 10
-43193.3716
 20
-145679.2418
 30
54.3443
  0
VERTEX
  8
Layer54
 10
-43193.4667
 20
-145679.2900
 30
54.2224
  0
VERTEX
  8
Layer54
 10
-43193.4277
 20
-145679.3155
 30
54.1115
  0
VERTEX
  8
Layer54
 10
-43193.2554
 20
-145679.3339
 30
54.0333
  0
VERTEX
  8
Layer54
 10
-43193.0617
 20
-145679.3122
 30
54.1118
  0
SEQEND
  8
Layer54
  0
POLYLINE
  8
Layer55
 66
1
 70
9
  0
VERTEX
  8
Layer55
 10
-43199.7851
 20
-145679.1357
 30
54.6606
  0
VERTEX
  8
Layer55
 10
-43200.0147
 20
-145679.1028
 30
54.7614
  0
VERTEX
  8
Layer55
 10
-43200.2877
 20
-145679.1205
 30
54.6947
  0
VERTEX
  8
Layer55
 10
-43200.3396
 20
-145679.1772
 30
54.5263
  0
VERTEX
  8
Layer55
 10
-43200.1896
 20
-145679.2091
 30
54.4288
  0
VERTEX
  8
Layer55
 10
-43199.8523
 20
-145679.1874
 30
54.4788
  0
SEQEND
  8
Layer55
  0
POLYLINE
  8
Layer56
 66
1
 70
9
  0
VERTEX
  8
Layer56
 10
-43199.3804
 20
-145679.1642
 30
54.6286
  0
VERTEX
  8
Layer56
 10
-43199.5149
 20
-145679.0994
 30
54.7547
  0
VERTEX
  8
Layer56
 10
-43199.6701
 20
-145679.1102
 30
54.7011
  0
VERTEX
  8
Layer56
 10
-43199.7021
 20
-145679.1539
 30
54.5474
  0
VERTEX
  8
Layer56
 10
-43199.5895
 20
-145679.2064
 30
54.4204
  0
VERTEX
  8
Layer56
 10
-43199.4341
 20
-145679.2093
 30
54.4631
  0
SEQEND
  8
Layer56
  0
POLYLINE
  8
Layer57
 66
1
 70
9
  0
VERTEX
  8
Layer57
 10
-43198.9773
 20
-145679.1446
 30
54.6266
  0
VERTEX
  8
Layer57
 10
-43199.0770
 20
-145679.1158
 30
54.7419
  0
VERTEX
  8
Layer57
 10
-43199.2808
 20
-145679.1175
 30
54.7185
  0
VERTEX
  8
Layer57
 10
-43199.3306
 20
-145679.1592
 30
54.5651
  0
VERTEX
  8
Layer57
 10
-43199.2104
 20
-145679.2060
 30
54.4233
  0
VERTEX
  8
Layer57
 10
-43199.0397
 20
-145679.1947
 30
54.4672
  0
SEQEND
  8
Layer57
  0
POLYLINE
  8
Layer58
 66
1
 70
9
  0
VERTEX
  8
Layer58
 10
-43198.5540
 20
-145679.1413
 30
54.6419
  0
VERTEX
  8
Layer58
 10
-43198.6585
 20
-145679.1139
 30
54.7450
  0
VERTEX
  8
Layer58
 10
-43198.7925
 20
-145679.1041
 30
54.7638
  0
VERTEX
  8
Layer58
 10
-43198.9341
 20
-145679.1393
 30
54.6255
  0
VERTEX
  8
Layer58
 10
-43198.8998
 20
-145679.1809
 30
54.5027
  0
VERTEX
  8
Layer58
 10
-43198.7683
 20
-145679.2097
 30
54.4247
  0
VERTEX
  8
Layer58
 10
-43198.6313
 20
-145679.2013
 30
54.4528
  0
SEQEND
  8
Layer58
  0
POLYLINE
  8
Layer59
 66
1
 70
9
  0
VERTEX
  8
Layer59
 10
-43198.0138
 20
-145679.1538
 30
54.6430
  0
VERTEX
  8
Layer59
 10
-43198.2240
 20
-145679.1032
 30
54.7645
  0
VERTEX
  8
Layer59
 10
-43198.4918
 20
-145679.1466
 30
54.6125
  0
VERTEX
  8
Layer59
 10
-43198.3918
 20
-145679.2026
 30
54.4416
  0
VERTEX
  8
Layer59
 10
-43198.1198
 20
-145679.2080
 30
54.4507
  0
SEQEND
  8
Layer59
  0
POLYLINE
  8
Layer60
 66
1
 70
9
  0
VERTEX
  8
Layer60
 10
-43197.5441
 20
-145679.1457
 30
54.6336
  0
VERTEX
  8
Layer60
 10
-43197.7157
 20
-145679.1169
 30
54.7666
  0
VERTEX
  8
Layer60
 10
-43197.9315
 20
-145679.1357
 30
54.6738
  0
VERTEX
  8
Layer60
 10
-43197.9101
 20
-145679.1846
 30
54.4846
  0
VERTEX
  8
Layer60
 10
-43197.6642
 20
-145679.1947
 30
54.4323
  0
SEQEND
  8
Layer60
  0
POLYLINE
  8
Layer61
 66
1
 70
9
  0
VERTEX
  8
Layer61
 10
-43197.1195
 20
-145679.1628
 30
54.5925
  0
VERTEX
  8
Layer61
 10
-43197.2177
 20
-145679.1171
 30
54.7465
  0
VERTEX
  8
Layer61
 10
-43197.4294
 20
-145679.1129
 30
54.7187
  0
VERTEX
  8
Layer61
 10
-43197.4916
 20
-145679.1601
 30
54.5752
  0
VERTEX
  8
Layer61
 10
-43197.3660
 20
-145679.2041
 30
54.4342
  0
VERTEX
  8
Layer61
 10
-43197.2048
 20
-145679.2024
 30
54.4482
  0
SEQEND
  8
Layer61
  0
POLYLINE
  8
Layer62
 66
1
 70
9
  0
VERTEX
  8
Layer62
 10
-43196.5087
 20
-145679.1215
 30
54.6834
  0
VERTEX
  8
Layer62
 10
-43196.7794
 20
-145679.1116
 30
54.7642
  0
VERTEX
  8
Layer62
 10
-43197.0554
 20
-145679.1519
 30
54.6375
  0
VERTEX
  8
Layer62
 10
-43196.9322
 20
-145679.2072
 30
54.4273
  0
VERTEX
  8
Layer62
 10
-43196.5646
 20
-145679.1845
 30
54.4782
  0
SEQEND
  8
Layer62
  0
POLYLINE
  8
Layer63
 66
1
 70
9
  0
VERTEX
  8
Layer63
 10
-43196.0077
 20
-145679.1598
 30
54.5934
  0
VERTEX
  8
Layer63
 10
-43196.1164
 20
-145679.1065
 30
54.7420
  0
VERTEX
  8
Layer63
 10
-43196.2481
 20
-145679.1045
 30
54.7588
  0
VERTEX
  8
Layer63
 10
-43196.4091
 20
-145679.1360
 30
54.6440
  0
VERTEX
  8
Layer63
 10
-43196.4074
 20
-145679.1765
 30
54.5267
  0
VERTEX
  8
Layer63
 10
-43196.2891
 20
-145679.2090
 30
54.4319
  0
VERTEX
  8
Layer63
 10
-43196.0749
 20
-145679.1982
 30
54.4616
  0
SEQEND
  8
Layer63
  0
POLYLINE
  8
Layer64
 66
1
 70
9
  0
VERTEX
  8
Layer64
 10
-43195.4991
 20
-145679.1602
 30
54.6425
  0
VERTEX
  8
Layer64
 10
-43195.6375
 20
-145679.1077
 30
54.7615
  0
VERTEX
  8
Layer64
 10
-43195.8920
 20
-145679.1123
 30
54.7059
  0
VERTEX
  8
Layer64
 10
-43195.9507
 20
-145679.1677
 30
54.5314
  0
VERTEX
  8
Layer64
 10
-43195.7329
 20
-145679.2120
 30
54.4145
  0
VERTEX
  8
Layer64
 10
-43195.5226
 20
-145679.2057
 30
54.5061
  0
SEQEND
  8
Layer64
  0
POLYLINE
  8
Layer65
 66
1
 70
9
  0
VERTEX
  8
Layer65
 10
-43195.1292
 20
-145679.1216
 30
54.6675
  0
VERTEX
  8
Layer65
 10
-43195.2426
 20
-145679.1018
 30
54.7618
  0
VERTEX
  8
Layer65
 10
-43195.3813
 20
-145679.1250
 30
54.7216
  0
VERTEX
  8
Layer65
 10
-43195.4173
 20
-145679.1826
 30
54.5266
  0
VERTEX
  8
Layer65
 10
-43195.3173
 20
-145679.2144
 30
54.4265
  0
VERTEX
  8
Layer65
 10
-43195.1534
 20
-145679.1940
 30
54.4780
  0
SEQEND
  8
Layer65
  0
POLYLINE
  8
Layer66
 66
1
 70
9
  0
VERTEX
  8
Layer66
 10
-43194.3628
 20
-145679.1620
 30
54.5595
  0
VERTEX
  8
Layer66
 10
-43194.6032
 20
-145679.1102
 30
54.7407
  0
VERTEX
  8
Layer66
 10
-43194.8615
 20
-145679.1176
 30
54.7674
  0
VERTEX
  8
Layer66
 10
-43195.0601
 20
-145679.1530
 30
54.6559
  0
VERTEX
  8
Layer66
 10
-43194.8237
 20
-145679.2084
 30
54.4451
  0
VERTEX
  8
Layer66
 10
-43194.4889
 20
-145679.1960
 30
54.4319
  0
SEQEND
  8
Layer66
  0
POLYLINE
  8
Layer67
 66
1
 70
9
  0
VERTEX
  8
Layer67
 10
-43193.9501
 20
-145679.1446
 30
54.6112
  0
VERTEX
  8
Layer67
 10
-43194.0679
 20
-145679.1015
 30
54.7565
  0
VERTEX
  8
Layer67
 10
-43194.2787
 20
-145679.1358
 30
54.7025
  0
VERTEX
  8
Layer67
 10
-43194.2809
 20
-145679.2011
 30
54.4975
  0
VERTEX
  8
Layer67
 10
-43194.0979
 20
-145679.2032
 30
54.4288
  0
SEQEND
  8
Layer67
  0
POLYLINE
  8
Layer68
 66
1
 70
9
  0
VERTEX
  8
Layer68
 10
-43193.4564
 20
-145679.1401
 30
54.6619
  0
VERTEX
  8
Layer68
 10
-43193.6621
 20
-145679.1056
 30
54.7636
  0
VERTEX
  8
Layer68
 10
-43193.8949
 20
-145679.1387
 30
54.6547
  0
VERTEX
  8
Layer68
 10
-43193.8049
 20
-145679.1942
 30
54.4544
  0
VERTEX
  8
Layer68
 10
-43193.5351
 20
-145679.1970
 30
54.4607
  0
SEQEND
  8
Layer68
  0
POLYLINE
  8
Layer69
 66
1
 70
9
  0
VERTEX
  8
Layer69
 10
-43192.8286
 20
-145679.1327
 30
54.5872
  0
VERTEX
  8
Layer69
 10
-43193.0683
 20
-145679.1108
 30
54.7671
  0
VERTEX
  8
Layer69
 10
-43193.3277
 20
-145679.1479
 30
54.7150
  0
VERTEX
  8
Layer69
 10
-43193.2993
 20
-145679.2006
 30
54.4763
  0
VERTEX
  8
Layer69
 10
-43192.9415
 20
-145679.1866
 30
54.4317
  0
SEQEND
  8
Layer69
  0
ENDSEC
  0
EOF
